<svg fill="none" height="100%" width="100%" viewBox="0 0 800 600" xmlns:xlink="http://www.w3.org/1999/xlink" xmlns="http://www.w3.org/2000/svg"><g transform="matrix(1,0,0,1,-0.5,52.5)" id="i0"><g id="i1" transform="matrix(1,0,0,1,400.25,270.367)"><path fill="#f2f2f2" d="M-400,-135.739C-400,-135.739,302.963,270.117,302.963,270.117C302.963,270.117,400,270.117,400,270.117C400,270.117,400,191.763,400,191.763C400,191.763,-400,-270.117,-400,-270.117C-400,-270.117,-400,-135.739,-400,-135.739Z" /></g></g><g id="i2"><g transform="translate(-90,68)"><animateTransform repeatCount="indefinite" type="translate" attributeName="transform" dur="1.433s" begin="0s" calcMode="spline" values="-90 68; 851 610.5; 851 610.5" keyTimes="0; 0.581395; 1" keySplines="0 0 1 1; 0 0 1 1" fill="freeze" /><g transform="scale(1,1) translate(-88,-51)"><g id="i1" transform="matrix(1,0,0,1,87.865,50.835)"><path fill="#ededed" d="M28.761,-50.585C28.761,-50.585,87.615,-16.604,87.615,-16.604C87.615,-16.604,-28.76,50.585,-28.76,50.585C-28.76,50.585,-87.615,16.605,-87.615,16.605C-87.615,16.605,28.761,-50.585,28.761,-50.585Z" /></g></g></g></g><g visibility="hidden" id="i2"><animate repeatCount="indefinite" begin="0s" calcMode="discrete" dur="1.433s" values="hidden; visible; hidden; hidden; hidden" keyTimes="0; 0.208951; 0.790816; 0.999767; 1" attributeName="visibility" /><g transform="translate(-90,68)"><animateTransform repeatCount="indefinite" type="translate" attributeName="transform" dur="1.433s" begin="0s" calcMode="spline" values="-90 68; -90 68; 851 610.5; 851 610.5" keyTimes="0; 0.209302; 0.790697; 1" keySplines="0 0 1 1; 0 0 1 1; 0 0 1 1" fill="freeze" /><g transform="scale(1,1) translate(-88,-51)"><g id="i1" transform="matrix(1,0,0,1,87.865,50.835)"><path fill="#ededed" d="M28.761,-50.585C28.761,-50.585,87.615,-16.604,87.615,-16.604C87.615,-16.604,-28.76,50.585,-28.76,50.585C-28.76,50.585,-87.615,16.605,-87.615,16.605C-87.615,16.605,28.761,-50.585,28.761,-50.585Z" /></g></g></g></g><g visibility="hidden" id="i2"><animate repeatCount="indefinite" begin="0s" calcMode="discrete" dur="1.433s" values="hidden; visible; visible; visible" keyTimes="0; 0.418903; 0.999767; 1" attributeName="visibility" /><g transform="translate(-90,68)"><animateTransform repeatCount="indefinite" type="translate" attributeName="transform" dur="1.433s" begin="0s" calcMode="spline" values="-90 68; -90 68; 851 610.5; 851 610.5" keyTimes="0; 0.418605; 1; 1" keySplines="0 0 1 1; 0 0 1 1; 0 0 1 1" fill="freeze" /><g transform="scale(1,1) translate(-88,-51)"><g id="i1" transform="matrix(1,0,0,1,87.865,50.835)"><path fill="#ededed" d="M28.761,-50.585C28.761,-50.585,87.615,-16.604,87.615,-16.604C87.615,-16.604,-28.76,50.585,-28.76,50.585C-28.76,50.585,-87.615,16.605,-87.615,16.605C-87.615,16.605,28.761,-50.585,28.761,-50.585Z" /></g></g></g></g><g transform="matrix(1,0,0,1,158.5,117)" id="i3"><g id="i4" transform="matrix(1,0,0,1,36.418,64.131)"><path fill="#b3b3b3" d="M-35.839,20.584C-35.839,20.584,35.408,-20.549,35.408,-20.549C35.408,-20.549,35.537,-20.584,35.537,-20.584C35.537,-20.584,35.682,-20.584,35.682,-20.584C35.682,-20.584,35.839,-20.549,35.839,-20.549C35.839,-20.549,-35.409,20.584,-35.409,20.584C-35.409,20.584,-35.565,20.55,-35.565,20.55C-35.565,20.55,-35.71,20.55,-35.71,20.55C-35.71,20.55,-35.839,20.584,-35.839,20.584Z" /></g><g id="i5" transform="matrix(1,0,0,1,86.663,88.662)"><path fill="#24988d" d="M-64.601,-46.299C-64.601,-46.299,6.982,-87.608,6.982,-87.608C9.118,-88.412,10.661,-87.778,12.595,-86.759C12.595,-86.759,57.829,-60.643,57.829,-60.643C57.829,-60.643,58.519,-60.204,58.519,-60.204C58.519,-60.204,59.189,-59.698,59.189,-59.698C59.189,-59.698,59.837,-59.13,59.837,-59.13C59.837,-59.13,60.459,-58.508,60.459,-58.508C60.459,-58.508,61.05,-57.836,61.05,-57.836C61.05,-57.836,61.608,-57.121,61.608,-57.121C61.608,-57.121,62.13,-56.368,62.13,-56.368C62.13,-56.368,62.611,-55.585,62.611,-55.585C62.611,-55.585,63.049,-54.777,63.049,-54.777C63.049,-54.777,63.44,-53.948,63.44,-53.948C63.44,-53.948,63.78,-53.108,63.78,-53.108C63.78,-53.108,64.066,-52.258,64.066,-52.258C64.066,-52.258,64.295,-51.409,64.295,-51.409C64.295,-51.409,64.462,-50.565,64.462,-50.565C64.462,-50.565,64.566,-49.73,64.566,-49.73C64.566,-49.73,64.601,-48.914,64.601,-48.914C64.601,-48.914,64.601,-45.801,64.601,-45.801C64.601,-45.801,64.601,-42.738,64.601,-42.738C64.601,-42.738,64.601,-39.721,64.601,-39.721C64.601,-39.721,64.601,-36.747,64.601,-36.747C64.601,-36.747,64.601,-33.813,64.601,-33.813C64.601,-33.813,64.601,-30.915,64.601,-30.915C64.601,-30.915,64.601,-28.049,64.601,-28.049C64.601,-28.049,64.601,-25.216,64.601,-25.216C64.601,-25.216,64.601,-22.406,64.601,-22.406C64.601,-22.406,64.601,-19.621,64.601,-19.621C64.601,-19.621,64.601,-16.855,64.601,-16.855C64.601,-16.855,64.601,-14.107,64.601,-14.107C64.601,-14.107,64.601,-11.371,64.601,-11.371C64.601,-11.371,64.601,-8.644,64.601,-8.644C64.601,-8.644,64.601,-5.924,64.601,-5.924C64.601,-5.924,64.601,-3.208,64.601,-3.208C64.601,-3.208,64.601,-0.493,64.601,-0.493C64.601,-0.493,64.601,2.227,64.601,2.227C64.601,2.227,64.601,4.952,64.601,4.952C64.601,4.952,64.601,7.688,64.601,7.688C64.601,7.688,64.601,10.438,64.601,10.438C64.601,10.438,64.601,13.203,64.601,13.203C64.601,13.203,64.601,15.99,64.601,15.99C64.601,15.99,64.601,18.799,64.601,18.799C64.601,18.799,64.601,21.632,64.601,21.632C64.601,21.632,64.601,24.497,64.601,24.497C64.601,24.497,64.601,27.395,64.601,27.395C64.601,27.395,64.601,30.329,64.601,30.329C64.601,30.329,64.601,33.303,64.601,33.303C64.601,33.303,64.601,36.32,64.601,36.32C64.601,36.32,64.601,39.383,64.601,39.383C64.601,39.383,64.601,42.496,64.601,42.496C64.601,42.496,64.563,43.332,64.563,43.332C64.563,43.332,64.452,44.102,64.452,44.102C64.452,44.102,64.272,44.803,64.272,44.803C64.272,44.803,64.026,45.434,64.026,45.434C64.026,45.434,63.717,45.991,63.717,45.991C63.717,45.991,63.351,46.473,63.351,46.473C63.351,46.473,62.93,46.879,62.93,46.879C62.93,46.879,62.458,47.206,62.458,47.206C62.458,47.206,-8.788,88.34,-8.788,88.34C-8.788,88.34,-9.006,88.411,-9.006,88.411C-9.006,88.411,-8.585,88.006,-8.585,88.006C-8.585,88.006,-8.218,87.523,-8.218,87.523C-8.218,87.523,-7.91,86.965,-7.91,86.965C-7.91,86.965,-7.664,86.334,-7.664,86.334C-7.664,86.334,-7.483,85.633,-7.483,85.633C-7.483,85.633,-7.372,84.864,-7.372,84.864C-7.372,84.864,-7.335,84.028,-7.335,84.028C-7.335,84.028,-7.335,80.915,-7.335,80.915C-7.335,80.915,-7.335,77.852,-7.335,77.852C-7.335,77.852,-7.335,74.835,-7.335,74.835C-7.335,74.835,-7.335,71.862,-7.335,71.862C-7.335,71.862,-7.335,68.928,-7.335,68.928C-7.335,68.928,-7.335,66.029,-7.335,66.029C-7.335,66.029,-7.335,63.164,-7.335,63.164C-7.335,63.164,-7.335,60.329,-7.335,60.329C-7.335,60.329,-7.335,57.521,-7.335,57.521C-7.335,57.521,-7.335,54.736,-7.335,54.736C-7.335,54.736,-7.335,51.97,-7.335,51.97C-7.335,51.97,-7.335,49.221,-7.335,49.221C-7.335,49.221,-7.335,46.485,-7.335,46.485C-7.335,46.485,-7.335,43.759,-7.335,43.759C-7.335,43.759,-7.335,41.039,-7.335,41.039C-7.335,41.039,-7.335,38.324,-7.335,38.324C-7.335,38.324,-7.335,35.607,-7.335,35.607C-7.335,35.607,-7.335,32.888,-7.335,32.888C-7.335,32.888,-7.335,30.161,-7.335,30.161C-7.335,30.161,-7.335,27.426,-7.335,27.426C-7.335,27.426,-7.335,24.677,-7.335,24.677C-7.335,24.677,-7.335,21.911,-7.335,21.911C-7.335,21.911,-7.335,19.125,-7.335,19.125C-7.335,19.125,-7.335,16.316,-7.335,16.316C-7.335,16.316,-7.335,13.481,-7.335,13.481C-7.335,13.481,-7.335,10.617,-7.335,10.617C-7.335,10.617,-7.335,7.719,-7.335,7.719C-7.335,7.719,-7.335,4.784,-7.335,4.784C-7.335,4.784,-7.335,1.81,-7.335,1.81C-7.335,1.81,-7.335,-1.207,-7.335,-1.207C-7.335,-1.207,-7.335,-4.269,-7.335,-4.269C-7.335,-4.269,-7.335,-7.382,-7.335,-7.382C-7.335,-7.382,-7.37,-8.199,-7.37,-8.199C-7.37,-8.199,-7.473,-9.032,-7.473,-9.032C-7.473,-9.032,-7.641,-9.878,-7.641,-9.878C-7.641,-9.878,-7.869,-10.727,-7.869,-10.727C-7.869,-10.727,-8.155,-11.575,-8.155,-11.575C-8.155,-11.575,-8.495,-12.415,-8.495,-12.415C-8.495,-12.415,-8.886,-13.243,-8.886,-13.243C-8.886,-13.243,-9.324,-14.053,-9.324,-14.053C-9.324,-14.053,-9.805,-14.837,-9.805,-14.837C-9.805,-14.837,-10.327,-15.589,-10.327,-15.589C-10.327,-15.589,-10.886,-16.303,-10.886,-16.303C-10.886,-16.303,-11.477,-16.975,-11.477,-16.975C-11.477,-16.975,-12.099,-17.599,-12.099,-17.599C-12.099,-17.599,-12.746,-18.167,-12.746,-18.167C-12.746,-18.167,-13.417,-18.673,-13.417,-18.673C-13.417,-18.673,-14.106,-19.112,-14.106,-19.112C-14.106,-19.112,-58.989,-45.451,-58.989,-45.451C-58.989,-45.451,-59.857,-45.909,-59.857,-45.909C-59.857,-45.909,-60.675,-46.254,-60.675,-46.254C-60.675,-46.254,-61.444,-46.493,-61.444,-46.493C-61.444,-46.493,-62.165,-46.632,-62.165,-46.632C-62.165,-46.632,-62.84,-46.676,-62.84,-46.676C-62.84,-46.676,-63.471,-46.632,-63.471,-46.632C-63.471,-46.632,-64.057,-46.503,-64.057,-46.503C-64.057,-46.503,-64.601,-46.299,-64.601,-46.299Z" /></g><g id="i6" transform="matrix(1,0,0,1,32.422,139.963)"><path fill="#242424" d="M-12.03,-20.216C-12.03,-20.216,12.03,-6.325,12.03,-6.325C12.03,-6.325,12.03,20.216,12.03,20.216C12.03,20.216,-12.03,6.326,-12.03,6.326C-12.03,6.326,-12.03,-20.216,-12.03,-20.216Z" /></g><g id="i7" transform="matrix(1,0,0,1,50.453,157.876)"><path fill="#333333" d="M1.706,18.992C1.706,18.992,12.456,12.785,12.456,12.785C12.456,12.785,12.874,12.52,12.874,12.52C12.874,12.52,13.271,12.22,13.271,12.22C13.271,12.22,13.646,11.886,13.646,11.886C13.646,11.886,13.998,11.517,13.998,11.517C13.998,11.517,14.328,11.115,14.328,11.115C14.328,11.115,14.631,10.68,14.631,10.68C14.631,10.68,14.91,10.212,14.91,10.212C14.91,10.212,15.164,9.712,15.164,9.712C15.164,9.712,15.39,9.18,15.39,9.18C15.39,9.18,15.588,8.617,15.588,8.617C15.588,8.617,15.758,8.023,15.758,8.023C15.758,8.023,15.899,7.399,15.899,7.399C15.899,7.399,16.01,6.745,16.01,6.745C16.01,6.745,16.091,6.061,16.091,6.061C16.091,6.061,16.139,5.349,16.139,5.349C16.139,5.349,16.156,4.608,16.156,4.608C16.156,4.608,16.139,3.848,16.139,3.848C16.139,3.848,16.091,3.079,16.091,3.079C16.091,3.079,16.01,2.303,16.01,2.303C16.01,2.303,15.899,1.521,15.899,1.521C15.899,1.521,15.758,0.734,15.758,0.734C15.758,0.734,15.588,-0.057,15.588,-0.057C15.588,-0.057,15.39,-0.849,15.39,-0.849C15.39,-0.849,15.164,-1.642,15.164,-1.642C15.164,-1.642,14.91,-2.434,14.91,-2.434C14.91,-2.434,14.631,-3.224,14.631,-3.224C14.631,-3.224,14.328,-4.01,14.328,-4.01C14.328,-4.01,13.998,-4.792,13.998,-4.792C13.998,-4.792,13.646,-5.567,13.646,-5.567C13.646,-5.567,13.271,-6.334,13.271,-6.334C13.271,-6.334,12.874,-7.093,12.874,-7.093C12.874,-7.093,12.456,-7.841,12.456,-7.841C12.456,-7.841,12.018,-8.577,12.018,-8.577C12.018,-8.577,11.56,-9.3,11.56,-9.3C11.56,-9.3,11.082,-10.008,11.082,-10.008C11.082,-10.008,10.587,-10.701,10.587,-10.701C10.587,-10.701,10.075,-11.377,10.075,-11.377C10.075,-11.377,9.546,-12.033,9.546,-12.033C9.546,-12.033,9.001,-12.67,9.001,-12.67C9.001,-12.67,8.441,-13.285,8.441,-13.285C8.441,-13.285,7.868,-13.877,7.868,-13.877C7.868,-13.877,7.281,-14.445,7.281,-14.445C7.281,-14.445,6.682,-14.988,6.682,-14.988C6.682,-14.988,6.071,-15.504,6.071,-15.504C6.071,-15.504,5.449,-15.991,5.449,-15.991C5.449,-15.991,4.817,-16.448,4.817,-16.448C4.817,-16.448,4.175,-16.875,4.175,-16.875C4.175,-16.875,3.525,-17.269,3.525,-17.269C3.525,-17.269,2.875,-17.625,2.875,-17.625C2.875,-17.625,2.233,-17.94,2.233,-17.94C2.233,-17.94,1.601,-18.212,1.601,-18.212C1.601,-18.212,0.979,-18.443,0.979,-18.443C0.979,-18.443,0.369,-18.633,0.369,-18.633C0.369,-18.633,-0.231,-18.782,-0.231,-18.782C-0.231,-18.782,-0.818,-18.892,-0.818,-18.892C-0.818,-18.892,-1.392,-18.962,-1.392,-18.962C-1.392,-18.962,-1.951,-18.992,-1.951,-18.992C-1.951,-18.992,-2.496,-18.985,-2.496,-18.985C-2.496,-18.985,-3.024,-18.939,-3.024,-18.939C-3.024,-18.939,-3.537,-18.856,-3.537,-18.856C-3.537,-18.856,-4.032,-18.735,-4.032,-18.735C-4.032,-18.735,-4.509,-18.578,-4.509,-18.578C-4.509,-18.578,-4.968,-18.383,-4.968,-18.383C-4.968,-18.383,-5.406,-18.154,-5.406,-18.154C-5.406,-18.154,-16.156,-11.947,-16.156,-11.947C-16.156,-11.947,-15.718,-12.177,-15.718,-12.177C-15.718,-12.177,-15.259,-12.371,-15.259,-12.371C-15.259,-12.371,-14.782,-12.529,-14.782,-12.529C-14.782,-12.529,-14.287,-12.649,-14.287,-12.649C-14.287,-12.649,-13.774,-12.733,-13.774,-12.733C-13.774,-12.733,-13.246,-12.779,-13.246,-12.779C-13.246,-12.779,-12.701,-12.786,-12.701,-12.786C-12.701,-12.786,-12.142,-12.755,-12.142,-12.755C-12.142,-12.755,-11.568,-12.685,-11.568,-12.685C-11.568,-12.685,-10.981,-12.575,-10.981,-12.575C-10.981,-12.575,-10.382,-12.426,-10.382,-12.426C-10.382,-12.426,-9.771,-12.236,-9.771,-12.236C-9.771,-12.236,-9.149,-12.005,-9.149,-12.005C-9.149,-12.005,-8.517,-11.733,-8.517,-11.733C-8.517,-11.733,-7.875,-11.419,-7.875,-11.419C-7.875,-11.419,-7.225,-11.063,-7.225,-11.063C-7.225,-11.063,-6.575,-10.668,-6.575,-10.668C-6.575,-10.668,-5.934,-10.242,-5.934,-10.242C-5.934,-10.242,-5.302,-9.784,-5.302,-9.784C-5.302,-9.784,-4.679,-9.297,-4.679,-9.297C-4.679,-9.297,-4.068,-8.781,-4.068,-8.781C-4.068,-8.781,-3.469,-8.238,-3.469,-8.238C-3.469,-8.238,-2.882,-7.671,-2.882,-7.671C-2.882,-7.671,-2.309,-7.078,-2.309,-7.078C-2.309,-7.078,-1.749,-6.463,-1.749,-6.463C-1.749,-6.463,-1.205,-5.826,-1.205,-5.826C-1.205,-5.826,-0.676,-5.17,-0.676,-5.17C-0.676,-5.17,-0.163,-4.494,-0.163,-4.494C-0.163,-4.494,0.332,-3.802,0.332,-3.802C0.332,-3.802,0.809,-3.093,0.809,-3.093C0.809,-3.093,1.268,-2.37,1.268,-2.37C1.268,-2.37,1.706,-1.634,1.706,-1.634C1.706,-1.634,2.124,-0.886,2.124,-0.886C2.124,-0.886,2.521,-0.128,2.521,-0.128C2.521,-0.128,2.896,0.639,2.896,0.639C2.896,0.639,3.248,1.414,3.248,1.414C3.248,1.414,3.577,2.196,3.577,2.196C3.577,2.196,3.881,2.983,3.881,2.983C3.881,2.983,4.16,3.772,4.16,3.772C4.16,3.772,4.413,4.564,4.413,4.564C4.413,4.564,4.639,5.357,4.639,5.357C4.639,5.357,4.838,6.15,4.838,6.15C4.838,6.15,5.008,6.94,5.008,6.94C5.008,6.94,5.149,7.727,5.149,7.727C5.149,7.727,5.26,8.51,5.26,8.51C5.26,8.51,5.34,9.286,5.34,9.286C5.34,9.286,5.389,10.054,5.389,10.054C5.389,10.054,5.406,10.815,5.406,10.815C5.406,10.815,5.389,11.556,5.389,11.556C5.389,11.556,5.34,12.268,5.34,12.268C5.34,12.268,5.26,12.952,5.26,12.952C5.26,12.952,5.149,13.606,5.149,13.606C5.149,13.606,5.008,14.23,5.008,14.23C5.008,14.23,4.838,14.824,4.838,14.824C4.838,14.824,4.639,15.387,4.639,15.387C4.639,15.387,4.413,15.919,4.413,15.919C4.413,15.919,4.16,16.419,4.16,16.419C4.16,16.419,3.881,16.887,3.881,16.887C3.881,16.887,3.577,17.322,3.577,17.322C3.577,17.322,3.248,17.724,3.248,17.724C3.248,17.724,2.896,18.092,2.896,18.092C2.896,18.092,2.521,18.427,2.521,18.427C2.521,18.427,2.124,18.727,2.124,18.727C2.124,18.727,1.706,18.992,1.706,18.992Z" /></g><g id="i8" transform="matrix(1,0,0,1,43.228,161.398)"><path fill="#4d4d4d" d="M12.631,7.292C12.631,-0.763,6.976,-10.557,0,-14.584C-6.975,-18.612,-12.631,-15.347,-12.631,-7.292C-12.631,0.763,-6.975,10.558,0,14.585C6.976,18.613,12.631,15.347,12.631,7.292Z" /></g><g id="i9" transform="matrix(1,0,0,1,43.228,161.398)"><path fill="#e6e6e6" d="M7.92,4.572C7.92,-0.479,4.374,-6.62,0,-9.145C-4.374,-11.67,-7.92,-9.623,-7.92,-4.573C-7.92,0.478,-4.374,6.619,0,9.145C4.374,11.67,7.92,9.622,7.92,4.572Z" /></g><g id="i10" transform="matrix(1,0,0,1,43.228,161.398)"><path fill="#333333" d="M3.228,1.863C3.228,-0.195,1.783,-2.698,0.001,-3.727C-1.781,-4.756,-3.228,-3.922,-3.228,-1.864C-3.228,0.195,-1.781,2.697,0.001,3.726C1.783,4.755,3.228,3.921,3.228,1.863Z" /></g><g id="i11" transform="matrix(1,0,0,1,43.228,161.399)"><path fill="#333333" fill-rule="evenodd" d="M1.004,-5.17C1.004,-5.81,0.554,-6.588,0,-6.909C-0.555,-7.229,-1.004,-6.97,-1.004,-6.329C-1.004,-5.689,-0.555,-4.91,0,-4.589C0.554,-4.269,1.004,-4.529,1.004,-5.17ZM1.004,6.329C1.004,5.688,0.554,4.91,0,4.589C-0.555,4.269,-1.004,4.529,-1.004,5.169C-1.004,5.809,-0.555,6.588,0,6.909C0.554,7.229,1.004,6.969,1.004,6.329Z" /></g><g id="i12" transform="matrix(1,0,0,1,43.228,161.399)"><path fill="#333333" fill-rule="evenodd" d="M-4.979,-4.034C-5.533,-4.354,-5.983,-4.095,-5.983,-3.454C-5.983,-2.814,-5.533,-2.035,-4.979,-1.715C-4.424,-1.394,-3.974,-1.654,-3.974,-2.295C-3.974,-2.935,-4.424,-3.714,-4.979,-4.034ZM4.979,1.715C4.424,1.395,3.975,1.654,3.975,2.295C3.975,2.935,4.424,3.714,4.979,4.034C5.534,4.354,5.983,4.095,5.983,3.454C5.983,2.814,5.534,2.035,4.979,1.715Z" /></g><g id="i13" transform="matrix(1,0,0,1,43.228,161.399)"><path fill="#333333" fill-rule="evenodd" d="M-2.811,-6.508C-3.203,-7.187,-3.838,-7.555,-4.23,-7.329C-4.623,-7.102,-4.623,-6.368,-4.23,-5.688C-3.838,-5.009,-3.203,-4.642,-2.811,-4.869C-2.418,-5.095,-2.418,-5.828,-2.811,-6.508ZM4.231,5.687C3.838,5.008,3.203,4.642,2.811,4.868C2.419,5.095,2.419,5.828,2.811,6.507C3.203,7.187,3.838,7.554,4.231,7.327C4.623,7.101,4.623,6.366,4.231,5.687Z" /></g><g id="i14" transform="matrix(1,0,0,1,43.228,161.398)"><path fill="#333333" fill-rule="evenodd" d="M2.811,-3.262C3.203,-3.489,3.839,-3.122,4.231,-2.443C4.624,-1.764,4.624,-1.028,4.231,-0.802C3.839,-0.575,3.203,-0.943,2.811,-1.622C2.419,-2.301,2.419,-3.035,2.811,-3.262ZM-4.23,0.802C-3.838,0.575,-3.203,0.943,-2.811,1.622C-2.419,2.302,-2.419,3.037,-2.811,3.263C-3.203,3.49,-3.838,3.122,-4.23,2.443C-4.623,1.764,-4.623,1.029,-4.23,0.802Z" /></g><g id="i15" transform="matrix(1,0,0,1,50.453,157.876)"><path fill="#333333" d="M1.706,18.992C1.706,18.992,12.456,12.785,12.456,12.785C12.456,12.785,12.874,12.52,12.874,12.52C12.874,12.52,13.271,12.22,13.271,12.22C13.271,12.22,13.646,11.886,13.646,11.886C13.646,11.886,13.998,11.517,13.998,11.517C13.998,11.517,14.328,11.115,14.328,11.115C14.328,11.115,14.631,10.68,14.631,10.68C14.631,10.68,14.91,10.212,14.91,10.212C14.91,10.212,15.164,9.712,15.164,9.712C15.164,9.712,15.39,9.18,15.39,9.18C15.39,9.18,15.588,8.617,15.588,8.617C15.588,8.617,15.758,8.023,15.758,8.023C15.758,8.023,15.899,7.399,15.899,7.399C15.899,7.399,16.01,6.745,16.01,6.745C16.01,6.745,16.091,6.061,16.091,6.061C16.091,6.061,16.139,5.349,16.139,5.349C16.139,5.349,16.156,4.608,16.156,4.608C16.156,4.608,16.139,3.848,16.139,3.848C16.139,3.848,16.091,3.079,16.091,3.079C16.091,3.079,16.01,2.303,16.01,2.303C16.01,2.303,15.899,1.521,15.899,1.521C15.899,1.521,15.758,0.734,15.758,0.734C15.758,0.734,15.588,-0.057,15.588,-0.057C15.588,-0.057,15.39,-0.849,15.39,-0.849C15.39,-0.849,15.164,-1.642,15.164,-1.642C15.164,-1.642,14.91,-2.434,14.91,-2.434C14.91,-2.434,14.631,-3.224,14.631,-3.224C14.631,-3.224,14.328,-4.01,14.328,-4.01C14.328,-4.01,13.998,-4.792,13.998,-4.792C13.998,-4.792,13.646,-5.567,13.646,-5.567C13.646,-5.567,13.271,-6.334,13.271,-6.334C13.271,-6.334,12.874,-7.093,12.874,-7.093C12.874,-7.093,12.456,-7.841,12.456,-7.841C12.456,-7.841,12.018,-8.577,12.018,-8.577C12.018,-8.577,11.56,-9.3,11.56,-9.3C11.56,-9.3,11.082,-10.008,11.082,-10.008C11.082,-10.008,10.587,-10.701,10.587,-10.701C10.587,-10.701,10.075,-11.377,10.075,-11.377C10.075,-11.377,9.546,-12.033,9.546,-12.033C9.546,-12.033,9.001,-12.67,9.001,-12.67C9.001,-12.67,8.441,-13.285,8.441,-13.285C8.441,-13.285,7.868,-13.877,7.868,-13.877C7.868,-13.877,7.281,-14.445,7.281,-14.445C7.281,-14.445,6.682,-14.988,6.682,-14.988C6.682,-14.988,6.071,-15.504,6.071,-15.504C6.071,-15.504,5.449,-15.991,5.449,-15.991C5.449,-15.991,4.817,-16.448,4.817,-16.448C4.817,-16.448,4.175,-16.875,4.175,-16.875C4.175,-16.875,3.525,-17.269,3.525,-17.269C3.525,-17.269,2.875,-17.625,2.875,-17.625C2.875,-17.625,2.233,-17.94,2.233,-17.94C2.233,-17.94,1.601,-18.212,1.601,-18.212C1.601,-18.212,0.979,-18.443,0.979,-18.443C0.979,-18.443,0.369,-18.633,0.369,-18.633C0.369,-18.633,-0.231,-18.782,-0.231,-18.782C-0.231,-18.782,-0.818,-18.892,-0.818,-18.892C-0.818,-18.892,-1.392,-18.962,-1.392,-18.962C-1.392,-18.962,-1.951,-18.992,-1.951,-18.992C-1.951,-18.992,-2.496,-18.985,-2.496,-18.985C-2.496,-18.985,-3.024,-18.939,-3.024,-18.939C-3.024,-18.939,-3.537,-18.856,-3.537,-18.856C-3.537,-18.856,-4.032,-18.735,-4.032,-18.735C-4.032,-18.735,-4.509,-18.578,-4.509,-18.578C-4.509,-18.578,-4.968,-18.383,-4.968,-18.383C-4.968,-18.383,-5.406,-18.154,-5.406,-18.154C-5.406,-18.154,-16.156,-11.947,-16.156,-11.947C-16.156,-11.947,-15.718,-12.177,-15.718,-12.177C-15.718,-12.177,-15.259,-12.371,-15.259,-12.371C-15.259,-12.371,-14.782,-12.529,-14.782,-12.529C-14.782,-12.529,-14.287,-12.649,-14.287,-12.649C-14.287,-12.649,-13.774,-12.733,-13.774,-12.733C-13.774,-12.733,-13.246,-12.779,-13.246,-12.779C-13.246,-12.779,-12.701,-12.786,-12.701,-12.786C-12.701,-12.786,-12.142,-12.755,-12.142,-12.755C-12.142,-12.755,-11.568,-12.685,-11.568,-12.685C-11.568,-12.685,-10.981,-12.575,-10.981,-12.575C-10.981,-12.575,-10.382,-12.426,-10.382,-12.426C-10.382,-12.426,-9.771,-12.236,-9.771,-12.236C-9.771,-12.236,-9.149,-12.005,-9.149,-12.005C-9.149,-12.005,-8.517,-11.733,-8.517,-11.733C-8.517,-11.733,-7.875,-11.419,-7.875,-11.419C-7.875,-11.419,-7.225,-11.063,-7.225,-11.063C-7.225,-11.063,-6.575,-10.668,-6.575,-10.668C-6.575,-10.668,-5.934,-10.242,-5.934,-10.242C-5.934,-10.242,-5.302,-9.784,-5.302,-9.784C-5.302,-9.784,-4.679,-9.297,-4.679,-9.297C-4.679,-9.297,-4.068,-8.781,-4.068,-8.781C-4.068,-8.781,-3.469,-8.238,-3.469,-8.238C-3.469,-8.238,-2.882,-7.671,-2.882,-7.671C-2.882,-7.671,-2.309,-7.078,-2.309,-7.078C-2.309,-7.078,-1.749,-6.463,-1.749,-6.463C-1.749,-6.463,-1.205,-5.826,-1.205,-5.826C-1.205,-5.826,-0.676,-5.17,-0.676,-5.17C-0.676,-5.17,-0.163,-4.494,-0.163,-4.494C-0.163,-4.494,0.332,-3.802,0.332,-3.802C0.332,-3.802,0.809,-3.093,0.809,-3.093C0.809,-3.093,1.268,-2.37,1.268,-2.37C1.268,-2.37,1.706,-1.634,1.706,-1.634C1.706,-1.634,2.124,-0.886,2.124,-0.886C2.124,-0.886,2.521,-0.128,2.521,-0.128C2.521,-0.128,2.896,0.639,2.896,0.639C2.896,0.639,3.248,1.414,3.248,1.414C3.248,1.414,3.577,2.196,3.577,2.196C3.577,2.196,3.881,2.983,3.881,2.983C3.881,2.983,4.16,3.772,4.16,3.772C4.16,3.772,4.413,4.564,4.413,4.564C4.413,4.564,4.639,5.357,4.639,5.357C4.639,5.357,4.838,6.15,4.838,6.15C4.838,6.15,5.008,6.94,5.008,6.94C5.008,6.94,5.149,7.727,5.149,7.727C5.149,7.727,5.26,8.51,5.26,8.51C5.26,8.51,5.34,9.286,5.34,9.286C5.34,9.286,5.389,10.054,5.389,10.054C5.389,10.054,5.406,10.815,5.406,10.815C5.406,10.815,5.389,11.556,5.389,11.556C5.389,11.556,5.34,12.268,5.34,12.268C5.34,12.268,5.26,12.952,5.26,12.952C5.26,12.952,5.149,13.606,5.149,13.606C5.149,13.606,5.008,14.23,5.008,14.23C5.008,14.23,4.838,14.824,4.838,14.824C4.838,14.824,4.639,15.387,4.639,15.387C4.639,15.387,4.413,15.919,4.413,15.919C4.413,15.919,4.16,16.419,4.16,16.419C4.16,16.419,3.881,16.887,3.881,16.887C3.881,16.887,3.577,17.322,3.577,17.322C3.577,17.322,3.248,17.724,3.248,17.724C3.248,17.724,2.896,18.092,2.896,18.092C2.896,18.092,2.521,18.427,2.521,18.427C2.521,18.427,2.124,18.727,2.124,18.727C2.124,18.727,1.706,18.992,1.706,18.992Z" /></g><g id="i16" transform="matrix(1,0,0,1,40.133,109.551)"><path fill="#26b4a6" d="M32.592,66.951C32.592,66.951,21.063,60.295,21.063,60.295C19.726,32.562,-9.613,18.335,-11.533,41.476C-11.533,41.476,-31.831,29.757,-31.831,29.757C-35.841,27.442,-39.123,21.757,-39.123,17.126C-39.123,17.126,-39.123,9.104,-39.123,9.104C-39.123,9.104,-37.408,10.095,-37.408,10.095C-37.408,10.095,-30.365,14.161,-30.365,14.161C-30.365,14.161,-30.365,0.125,-30.365,0.125C-30.365,0.125,-37.408,-3.941,-37.408,-3.941C-37.408,-3.941,-39.123,-4.932,-39.123,-4.932C-39.123,-4.932,-39.123,-11.849,-39.123,-11.849C-39.556,-12.204,-39.883,-12.838,-39.883,-13.367C-39.883,-13.367,-39.883,-24.194,-39.883,-24.194C-39.883,-24.724,-39.556,-24.98,-39.123,-24.836C-39.123,-24.836,-39.123,-26.062,-39.123,-26.062C-39.123,-28.702,-38.632,-30.307,-37.149,-31.339C-37.149,-31.339,-31.831,-34.408,-31.831,-34.408C-31.831,-34.408,-20.717,-63.657,-20.717,-63.657C-19.456,-66.976,-16.889,-69.266,-12.122,-66.514C-12.122,-66.514,33.113,-40.398,33.113,-40.398C36.837,-38.248,39.883,-32.969,39.883,-28.669C39.883,-28.669,39.883,62.741,39.883,62.741C39.883,67.372,36.602,69.266,32.592,66.951Z" /></g><g id="i17" transform="matrix(1,0,0,1,44.934,150.538)"><path fill="#26b4a6" d="M22.054,22.651C22.054,22.651,16.262,19.307,16.262,19.307C14.926,-8.426,-14.414,-22.652,-16.335,0.488C-16.335,0.488,-22.054,-2.814,-22.054,-2.814C-21.441,-17.958,-9.837,-22.396,1.939,-15.122C15.077,-7.007,21.6,4.824,22.054,22.651Z" /></g><g id="i18" transform="matrix(1,0,0,1,37.857,79.539)"><path fill="#cae6e8" fill-rule="evenodd" d="M-24.504,-4.104C-24.504,-4.104,-18.191,-20.716,-18.191,-20.716C-16.93,-24.035,-14.553,-27.088,-10.48,-24.737C-10.48,-24.737,11.296,-12.164,11.296,-12.164C11.296,-12.164,11.296,19.263,11.296,19.263C11.296,19.263,-22.674,-0.35,-22.674,-0.35C-24.239,-1.253,-25.116,-2.494,-24.504,-4.104ZM15.984,-9.458C15.984,-9.458,18.344,-8.095,18.344,-8.095C22.069,-5.945,25.116,-0.667,25.116,3.634C25.116,3.634,25.116,25.438,25.116,25.438C25.116,26.798,24.848,27.088,23.298,26.193C23.298,26.193,15.984,21.97,15.984,21.97C15.984,21.97,15.984,-9.458,15.984,-9.458Z" /></g><g id="i19" transform="matrix(1,0,0,1,6.247,114.661)"><path fill="#d8e7e8" d="M-3.521,4.985C-3.521,4.985,3.521,9.051,3.521,9.051C3.521,9.051,3.521,-4.984,3.521,-4.984C3.521,-4.984,-3.521,-9.051,-3.521,-9.051C-3.521,-9.051,-3.521,4.985,-3.521,4.985Z" /></g><g id="i20" transform="matrix(1,0,0,1,11.59,116.695)"><path fill="#e82c8d" d="M0.459,6.557C0.459,6.557,-1.822,7.018,-1.822,7.018C-1.822,7.018,-1.822,-7.018,-1.822,-7.018C-1.822,-7.018,1.365,-5.178,1.365,-5.178C1.497,-5.102,1.611,-4.978,1.698,-4.813C1.786,-4.648,1.821,-4.489,1.805,-4.347C1.805,-4.347,0.65,6.306,0.65,6.306C0.635,6.449,0.568,6.535,0.459,6.557Z" /></g><g id="i21" transform="matrix(1,0,0,1,41.903,101.221)"><path fill="#26b4a6" d="M-4.654,-3.879C-4.654,-3.879,4.655,1.496,4.655,1.496C5.223,1.824,5.687,2.628,5.687,3.283C5.687,3.939,5.223,4.207,4.655,3.879C4.655,3.879,-4.654,-1.495,-4.654,-1.495C-5.221,-1.823,-5.687,-2.628,-5.687,-3.283C-5.687,-3.939,-5.222,-4.207,-4.654,-3.879Z" /></g><g id="i22" transform="matrix(1,0,0,1,175.095,178.469)"><path fill="#26b4a6" d="M-25.8,-53.063C-25.8,-53.063,91.908,14.896,91.908,14.896C91.908,14.896,25.8,53.063,25.8,53.063C25.8,53.063,-91.908,-14.895,-91.908,-14.895C-91.908,-14.895,-25.8,-53.063,-25.8,-53.063Z" /></g><g id="i23" transform="matrix(1,0,0,1,440.764,330.121)"><path fill="#c4c4c4" d="M39.091,-23.86C39.091,-23.86,41.327,-22.569,41.327,-22.569C41.327,-22.569,-39.092,23.86,-39.092,23.86C-39.092,23.86,-41.327,22.57,-41.327,22.57C-41.327,22.57,39.091,-23.86,39.091,-23.86Z" /></g><g id="i24" transform="matrix(1,0,0,1,173.642,232.113)"><path fill="#242424" d="M-13.166,-11.615C6.542,-21.804,23.724,2.96,20.055,21.803C20.055,21.803,-23.724,-3.471,-23.724,-3.471C-23.724,-3.471,-14.614,-8.731,-14.614,-8.731C-14.614,-8.731,-14.614,-15.668,-14.614,-15.668C-14.009,-14.35,-13.527,-13.027,-13.166,-11.615Z" /></g><g id="i25" transform="matrix(1,0,0,1,138.057,209.878)"><path fill="#242424" d="M-5.628,8.665C-8.995,-10.698,1.778,-9.824,8.995,-6.123C8.995,-6.123,-2.201,10.697,-2.201,10.697C-2.201,10.697,-5.628,8.665,-5.628,8.665Z" /></g><g id="i26" transform="matrix(1,0,0,1,112.708,189.472)"><path fill="#26b4a6" d="M-29.52,-25.899C-29.52,-25.899,29.52,8.188,29.52,8.188C19.045,10.736,16.921,15,17.409,24.061C17.409,24.061,14.225,25.899,14.225,25.899C14.225,25.899,-29.52,0.644,-29.52,0.644C-29.52,0.644,-29.52,-25.899,-29.52,-25.899Z" /></g><g id="i27" transform="matrix(1,0,0,1,134.58,202.545)"><path fill="#26b4a6" d="M-6.104,-12.825C-6.104,-12.825,7.648,-4.885,7.648,-4.885C-2.827,-2.337,-4.951,1.926,-4.463,10.987C-4.463,10.987,-7.648,12.825,-7.648,12.825C-7.648,12.825,-7.648,-12.825,-7.648,-12.825C-7.648,-12.825,-6.104,-12.825,-6.104,-12.825Z" /></g><g id="i28" transform="matrix(1,0,0,1,400.554,359.086)"><path fill="#cccccc" d="M-1.117,-6.396C-1.117,-6.396,1.117,-5.105,1.117,-5.105C1.117,-5.105,1.117,6.396,1.117,6.396C1.117,6.396,-1.117,5.361,-1.117,5.361C-1.117,5.361,-1.117,-6.396,-1.117,-6.396Z" /></g><g id="i29" transform="matrix(1,0,0,1,232.743,225.718)"><path fill="#26b4a6" d="M-34.21,5.477C-34.21,5.477,34.26,-32.354,34.26,-32.354C34.26,-32.354,34.26,-5.812,34.26,-5.812C34.26,-5.812,-31.848,32.354,-31.848,32.354C-31.848,32.354,-34.26,30.962,-34.26,30.962C-34.26,30.962,-34.21,5.477,-34.21,5.477Z" /></g><g id="i30" transform="matrix(1,0,0,1,274.068,263.317)"><path fill="#808080" d="M-13.163,-27.072C-13.163,-27.072,46.89,7.6,46.89,7.6C46.89,7.6,13.163,27.072,13.163,27.072C13.163,27.072,-46.89,-7.599,-46.89,-7.599C-46.89,-7.599,-13.163,-27.072,-13.163,-27.072Z" /></g><g id="i31" transform="matrix(1,0,0,1,257.205,276.438)"><path fill="#999999" d="M-30.026,-20.721C-30.026,-20.721,30.026,13.951,30.026,13.951C30.026,13.951,30.026,20.721,30.026,20.721C30.026,20.721,-30.026,-13.95,-30.026,-13.95C-30.026,-13.95,-30.026,-20.721,-30.026,-20.721Z" /></g><g id="i32" transform="matrix(1,0,0,1,304.094,284.038)"><path fill="#666666" d="M-16.863,6.35C-16.863,6.35,16.863,-13.122,16.863,-13.122C16.863,-13.122,16.863,-6.352,16.863,-6.352C16.863,-6.352,-16.863,13.122,-16.863,13.122C-16.863,13.122,-16.863,6.35,-16.863,6.35Z" /></g><g id="i33" transform="matrix(1,0,0,1,274.068,263.317)"><path fill="#808080" d="M-13.163,-27.072C-13.163,-27.072,46.89,7.6,46.89,7.6C46.89,7.6,13.163,27.072,13.163,27.072C13.163,27.072,-46.89,-7.599,-46.89,-7.599C-46.89,-7.599,-13.163,-27.072,-13.163,-27.072Z" /></g><g id="i34" transform="matrix(1,0,0,1,257.205,276.438)"><path fill="#999999" d="M-30.026,-20.721C-30.026,-20.721,30.026,13.951,30.026,13.951C30.026,13.951,30.026,20.721,30.026,20.721C30.026,20.721,-30.026,-13.95,-30.026,-13.95C-30.026,-13.95,-30.026,-20.721,-30.026,-20.721Z" /></g><g id="i35" transform="matrix(1,0,0,1,304.094,284.038)"><path fill="#666666" d="M-16.863,6.35C-16.863,6.35,16.863,-13.122,16.863,-13.122C16.863,-13.122,16.863,-6.352,16.863,-6.352C16.863,-6.352,-16.863,13.122,-16.863,13.122C-16.863,13.122,-16.863,6.35,-16.863,6.35Z" /></g><g id="i36" transform="matrix(1,0,0,1,309.729,307.536)"><path fill="#333333" d="M1.707,18.992C1.707,18.992,12.457,12.785,12.457,12.785C12.457,12.785,12.874,12.519,12.874,12.519C12.874,12.519,13.271,12.22,13.271,12.22C13.271,12.22,13.646,11.886,13.646,11.886C13.646,11.886,13.999,11.516,13.999,11.516C13.999,11.516,14.327,11.115,14.327,11.115C14.327,11.115,14.632,10.68,14.632,10.68C14.632,10.68,14.91,10.212,14.91,10.212C14.91,10.212,15.163,9.712,15.163,9.712C15.163,9.712,15.39,9.18,15.39,9.18C15.39,9.18,15.588,8.617,15.588,8.617C15.588,8.617,15.758,8.023,15.758,8.023C15.758,8.023,15.9,7.399,15.9,7.399C15.9,7.399,16.012,6.745,16.012,6.745C16.012,6.745,16.091,6.061,16.091,6.061C16.091,6.061,16.14,5.348,16.14,5.348C16.14,5.348,16.155,4.608,16.155,4.608C16.155,4.608,16.14,3.847,16.14,3.847C16.14,3.847,16.091,3.079,16.091,3.079C16.091,3.079,16.012,2.303,16.012,2.303C16.012,2.303,15.9,1.52,15.9,1.52C15.9,1.52,15.758,0.733,15.758,0.733C15.758,0.733,15.588,-0.057,15.588,-0.057C15.588,-0.057,15.39,-0.85,15.39,-0.85C15.39,-0.85,15.163,-1.643,15.163,-1.643C15.163,-1.643,14.91,-2.435,14.91,-2.435C14.91,-2.435,14.632,-3.225,14.632,-3.225C14.632,-3.225,14.327,-4.01,14.327,-4.01C14.327,-4.01,13.999,-4.792,13.999,-4.792C13.999,-4.792,13.646,-5.568,13.646,-5.568C13.646,-5.568,13.271,-6.335,13.271,-6.335C13.271,-6.335,12.874,-7.093,12.874,-7.093C12.874,-7.093,12.457,-7.841,12.457,-7.841C12.457,-7.841,12.018,-8.577,12.018,-8.577C12.018,-8.577,11.56,-9.299,11.56,-9.299C11.56,-9.299,11.082,-10.009,11.082,-10.009C11.082,-10.009,10.587,-10.701,10.587,-10.701C10.587,-10.701,10.074,-11.377,10.074,-11.377C10.074,-11.377,9.546,-12.033,9.546,-12.033C9.546,-12.033,9.001,-12.669,9.001,-12.669C9.001,-12.669,8.441,-13.285,8.441,-13.285C8.441,-13.285,7.868,-13.877,7.868,-13.877C7.868,-13.877,7.281,-14.445,7.281,-14.445C7.281,-14.445,6.682,-14.987,6.682,-14.987C6.682,-14.987,6.07,-15.503,6.07,-15.503C6.07,-15.503,5.448,-15.991,5.448,-15.991C5.448,-15.991,4.816,-16.448,4.816,-16.448C4.816,-16.448,4.176,-16.875,4.176,-16.875C4.176,-16.875,3.525,-17.27,3.525,-17.27C3.525,-17.27,2.875,-17.626,2.875,-17.626C2.875,-17.626,2.233,-17.94,2.233,-17.94C2.233,-17.94,1.603,-18.212,1.603,-18.212C1.603,-18.212,0.979,-18.444,0.979,-18.444C0.979,-18.444,0.368,-18.633,0.368,-18.633C0.368,-18.633,-0.23,-18.781,-0.23,-18.781C-0.23,-18.781,-0.818,-18.892,-0.818,-18.892C-0.818,-18.892,-1.392,-18.962,-1.392,-18.962C-1.392,-18.962,-1.951,-18.993,-1.951,-18.993C-1.951,-18.993,-2.496,-18.986,-2.496,-18.986C-2.496,-18.986,-3.024,-18.94,-3.024,-18.94C-3.024,-18.94,-3.537,-18.856,-3.537,-18.856C-3.537,-18.856,-4.032,-18.736,-4.032,-18.736C-4.032,-18.736,-4.509,-18.577,-4.509,-18.577C-4.509,-18.577,-4.967,-18.384,-4.967,-18.384C-4.967,-18.384,-5.406,-18.154,-5.406,-18.154C-5.406,-18.154,-16.155,-11.947,-16.155,-11.947C-16.155,-11.947,-15.717,-12.177,-15.717,-12.177C-15.717,-12.177,-15.259,-12.371,-15.259,-12.371C-15.259,-12.371,-14.782,-12.529,-14.782,-12.529C-14.782,-12.529,-14.287,-12.65,-14.287,-12.65C-14.287,-12.65,-13.774,-12.733,-13.774,-12.733C-13.774,-12.733,-13.246,-12.779,-13.246,-12.779C-13.246,-12.779,-12.701,-12.786,-12.701,-12.786C-12.701,-12.786,-12.142,-12.755,-12.142,-12.755C-12.142,-12.755,-11.568,-12.686,-11.568,-12.686C-11.568,-12.686,-10.982,-12.576,-10.982,-12.576C-10.982,-12.576,-10.382,-12.426,-10.382,-12.426C-10.382,-12.426,-9.771,-12.237,-9.771,-12.237C-9.771,-12.237,-9.147,-12.005,-9.147,-12.005C-9.147,-12.005,-8.517,-11.734,-8.517,-11.734C-8.517,-11.734,-7.875,-11.419,-7.875,-11.419C-7.875,-11.419,-7.225,-11.063,-7.225,-11.063C-7.225,-11.063,-6.574,-10.669,-6.574,-10.669C-6.574,-10.669,-5.934,-10.242,-5.934,-10.242C-5.934,-10.242,-5.302,-9.784,-5.302,-9.784C-5.302,-9.784,-4.68,-9.297,-4.68,-9.297C-4.68,-9.297,-4.068,-8.781,-4.068,-8.781C-4.068,-8.781,-3.469,-8.238,-3.469,-8.238C-3.469,-8.238,-2.882,-7.669,-2.882,-7.669C-2.882,-7.669,-2.309,-7.078,-2.309,-7.078C-2.309,-7.078,-1.749,-6.463,-1.749,-6.463C-1.749,-6.463,-1.204,-5.826,-1.204,-5.826C-1.204,-5.826,-0.676,-5.169,-0.676,-5.169C-0.676,-5.169,-0.163,-4.495,-0.163,-4.495C-0.163,-4.495,0.332,-3.803,0.332,-3.803C0.332,-3.803,0.809,-3.094,0.809,-3.094C0.809,-3.094,1.268,-2.371,1.268,-2.371C1.268,-2.371,1.707,-1.635,1.707,-1.635C1.707,-1.635,2.124,-0.887,2.124,-0.887C2.124,-0.887,2.521,-0.128,2.521,-0.128C2.521,-0.128,2.896,0.639,2.896,0.639C2.896,0.639,3.249,1.414,3.249,1.414C3.249,1.414,3.577,2.196,3.577,2.196C3.577,2.196,3.882,2.982,3.882,2.982C3.882,2.982,4.16,3.772,4.16,3.772C4.16,3.772,4.413,4.564,4.413,4.564C4.413,4.564,4.639,5.357,4.639,5.357C4.639,5.357,4.838,6.149,4.838,6.149C4.838,6.149,5.008,6.939,5.008,6.939C5.008,6.939,5.15,7.727,5.15,7.727C5.15,7.727,5.26,8.51,5.26,8.51C5.26,8.51,5.341,9.285,5.341,9.285C5.341,9.285,5.39,10.055,5.39,10.055C5.39,10.055,5.405,10.814,5.405,10.814C5.405,10.814,5.39,11.555,5.39,11.555C5.39,11.555,5.341,12.267,5.341,12.267C5.341,12.267,5.26,12.951,5.26,12.951C5.26,12.951,5.15,13.605,5.15,13.605C5.15,13.605,5.008,14.229,5.008,14.229C5.008,14.229,4.838,14.824,4.838,14.824C4.838,14.824,4.639,15.387,4.639,15.387C4.639,15.387,4.413,15.918,4.413,15.918C4.413,15.918,4.16,16.418,4.16,16.418C4.16,16.418,3.882,16.887,3.882,16.887C3.882,16.887,3.577,17.321,3.577,17.321C3.577,17.321,3.249,17.723,3.249,17.723C3.249,17.723,2.896,18.094,2.896,18.094C2.896,18.094,2.521,18.427,2.521,18.427C2.521,18.427,2.124,18.727,2.124,18.727C2.124,18.727,1.707,18.992,1.707,18.992Z" /></g><g id="i37" transform="matrix(1,0,0,1,302.505,311.058)"><path fill="#4d4d4d" d="M12.631,7.292C12.631,-0.763,6.976,-10.558,-0.001,-14.585C-6.976,-18.613,-12.631,-15.347,-12.631,-7.292C-12.631,0.764,-6.976,10.558,-0.001,14.586C6.976,18.613,12.631,15.347,12.631,7.292Z" /></g><g id="i38" transform="matrix(1,0,0,1,336.49,322.882)"><path fill="#333333" d="M1.707,18.992C1.707,18.992,12.457,12.786,12.457,12.786C12.457,12.786,12.874,12.52,12.874,12.52C12.874,12.52,13.271,12.221,13.271,12.221C13.271,12.221,13.646,11.887,13.646,11.887C13.646,11.887,13.999,11.517,13.999,11.517C13.999,11.517,14.327,11.115,14.327,11.115C14.327,11.115,14.632,10.68,14.632,10.68C14.632,10.68,14.91,10.213,14.91,10.213C14.91,10.213,15.163,9.713,15.163,9.713C15.163,9.713,15.39,9.18,15.39,9.18C15.39,9.18,15.588,8.618,15.588,8.618C15.588,8.618,15.758,8.024,15.758,8.024C15.758,8.024,15.9,7.4,15.9,7.4C15.9,7.4,16.01,6.746,16.01,6.746C16.01,6.746,16.09,6.062,16.09,6.062C16.09,6.062,16.139,5.349,16.139,5.349C16.139,5.349,16.155,4.608,16.155,4.608C16.155,4.608,16.139,3.848,16.139,3.848C16.139,3.848,16.09,3.08,16.09,3.08C16.09,3.08,16.01,2.304,16.01,2.304C16.01,2.304,15.9,1.521,15.9,1.521C15.9,1.521,15.758,0.734,15.758,0.734C15.758,0.734,15.588,-0.057,15.588,-0.057C15.588,-0.057,15.39,-0.849,15.39,-0.849C15.39,-0.849,15.163,-1.642,15.163,-1.642C15.163,-1.642,14.91,-2.434,14.91,-2.434C14.91,-2.434,14.632,-3.224,14.632,-3.224C14.632,-3.224,14.327,-4.01,14.327,-4.01C14.327,-4.01,13.999,-4.791,13.999,-4.791C13.999,-4.791,13.646,-5.567,13.646,-5.567C13.646,-5.567,13.271,-6.334,13.271,-6.334C13.271,-6.334,12.874,-7.092,12.874,-7.092C12.874,-7.092,12.457,-7.84,12.457,-7.84C12.457,-7.84,12.018,-8.576,12.018,-8.576C12.018,-8.576,11.559,-9.3,11.559,-9.3C11.559,-9.3,11.082,-10.008,11.082,-10.008C11.082,-10.008,10.587,-10.7,10.587,-10.7C10.587,-10.7,10.074,-11.376,10.074,-11.376C10.074,-11.376,9.546,-12.032,9.546,-12.032C9.546,-12.032,9.001,-12.669,9.001,-12.669C9.001,-12.669,8.441,-13.284,8.441,-13.284C8.441,-13.284,7.867,-13.876,7.867,-13.876C7.867,-13.876,7.281,-14.445,7.281,-14.445C7.281,-14.445,6.682,-14.987,6.682,-14.987C6.682,-14.987,6.07,-15.503,6.07,-15.503C6.07,-15.503,5.448,-15.99,5.448,-15.99C5.448,-15.99,4.816,-16.447,4.816,-16.447C4.816,-16.447,4.176,-16.874,4.176,-16.874C4.176,-16.874,3.525,-17.269,3.525,-17.269C3.525,-17.269,2.875,-17.625,2.875,-17.625C2.875,-17.625,2.233,-17.94,2.233,-17.94C2.233,-17.94,1.601,-18.211,1.601,-18.211C1.601,-18.211,0.979,-18.443,0.979,-18.443C0.979,-18.443,0.368,-18.632,0.368,-18.632C0.368,-18.632,-0.23,-18.781,-0.23,-18.781C-0.23,-18.781,-0.818,-18.891,-0.818,-18.891C-0.818,-18.891,-1.392,-18.961,-1.392,-18.961C-1.392,-18.961,-1.951,-18.992,-1.951,-18.992C-1.951,-18.992,-2.496,-18.985,-2.496,-18.985C-2.496,-18.985,-3.024,-18.939,-3.024,-18.939C-3.024,-18.939,-3.537,-18.856,-3.537,-18.856C-3.537,-18.856,-4.032,-18.735,-4.032,-18.735C-4.032,-18.735,-4.509,-18.577,-4.509,-18.577C-4.509,-18.577,-4.967,-18.383,-4.967,-18.383C-4.967,-18.383,-5.406,-18.154,-5.406,-18.154C-5.406,-18.154,-16.155,-11.946,-16.155,-11.946C-16.155,-11.946,-15.717,-12.177,-15.717,-12.177C-15.717,-12.177,-15.259,-12.37,-15.259,-12.37C-15.259,-12.37,-14.783,-12.529,-14.783,-12.529C-14.783,-12.529,-14.287,-12.649,-14.287,-12.649C-14.287,-12.649,-13.775,-12.733,-13.775,-12.733C-13.775,-12.733,-13.246,-12.778,-13.246,-12.778C-13.246,-12.778,-12.701,-12.785,-12.701,-12.785C-12.701,-12.785,-12.142,-12.754,-12.142,-12.754C-12.142,-12.754,-11.568,-12.685,-11.568,-12.685C-11.568,-12.685,-10.982,-12.575,-10.982,-12.575C-10.982,-12.575,-10.382,-12.425,-10.382,-12.425C-10.382,-12.425,-9.772,-12.236,-9.772,-12.236C-9.772,-12.236,-9.149,-12.004,-9.149,-12.004C-9.149,-12.004,-8.517,-11.733,-8.517,-11.733C-8.517,-11.733,-7.876,-11.418,-7.876,-11.418C-7.876,-11.418,-7.225,-11.063,-7.225,-11.063C-7.225,-11.063,-6.574,-10.668,-6.574,-10.668C-6.574,-10.668,-5.934,-10.241,-5.934,-10.241C-5.934,-10.241,-5.302,-9.783,-5.302,-9.783C-5.302,-9.783,-4.68,-9.296,-4.68,-9.296C-4.68,-9.296,-4.068,-8.78,-4.068,-8.78C-4.068,-8.78,-3.47,-8.237,-3.47,-8.237C-3.47,-8.237,-2.883,-7.67,-2.883,-7.67C-2.883,-7.67,-2.31,-7.077,-2.31,-7.077C-2.31,-7.077,-1.75,-6.462,-1.75,-6.462C-1.75,-6.462,-1.204,-5.825,-1.204,-5.825C-1.204,-5.825,-0.676,-5.169,-0.676,-5.169C-0.676,-5.169,-0.163,-4.494,-0.163,-4.494C-0.163,-4.494,0.332,-3.802,0.332,-3.802C0.332,-3.802,0.809,-3.093,0.809,-3.093C0.809,-3.093,1.268,-2.37,1.268,-2.37C1.268,-2.37,1.707,-1.634,1.707,-1.634C1.707,-1.634,2.124,-0.886,2.124,-0.886C2.124,-0.886,2.521,-0.127,2.521,-0.127C2.521,-0.127,2.896,0.639,2.896,0.639C2.896,0.639,3.249,1.415,3.249,1.415C3.249,1.415,3.577,2.197,3.577,2.197C3.577,2.197,3.882,2.983,3.882,2.983C3.882,2.983,4.16,3.773,4.16,3.773C4.16,3.773,4.413,4.565,4.413,4.565C4.413,4.565,4.639,5.358,4.639,5.358C4.639,5.358,4.837,6.15,4.837,6.15C4.837,6.15,5.008,6.94,5.008,6.94C5.008,6.94,5.148,7.727,5.148,7.727C5.148,7.727,5.26,8.51,5.26,8.51C5.26,8.51,5.34,9.286,5.34,9.286C5.34,9.286,5.389,10.055,5.389,10.055C5.389,10.055,5.405,10.815,5.405,10.815C5.405,10.815,5.389,11.556,5.389,11.556C5.389,11.556,5.34,12.268,5.34,12.268C5.34,12.268,5.26,12.952,5.26,12.952C5.26,12.952,5.148,13.606,5.148,13.606C5.148,13.606,5.008,14.23,5.008,14.23C5.008,14.23,4.837,14.825,4.837,14.825C4.837,14.825,4.639,15.388,4.639,15.388C4.639,15.388,4.413,15.919,4.413,15.919C4.413,15.919,4.16,16.419,4.16,16.419C4.16,16.419,3.882,16.888,3.882,16.888C3.882,16.888,3.577,17.322,3.577,17.322C3.577,17.322,3.249,17.724,3.249,17.724C3.249,17.724,2.896,18.093,2.896,18.093C2.896,18.093,2.521,18.428,2.521,18.428C2.521,18.428,2.124,18.727,2.124,18.727C2.124,18.727,1.707,18.992,1.707,18.992Z" /></g><g id="i39" transform="matrix(1,0,0,1,329.265,326.406)"><path fill="#4d4d4d" d="M12.631,7.292C12.631,-0.763,6.976,-10.559,0,-14.586C-6.975,-18.612,-12.631,-15.348,-12.631,-7.293C-12.631,0.762,-6.975,10.557,0,14.584C6.976,18.612,12.631,15.347,12.631,7.292Z" /></g><g id="i40" transform="matrix(1,0,0,1,154.108,217.781)"><path fill="#333333" d="M1.707,18.992C1.707,18.992,12.457,12.785,12.457,12.785C12.457,12.785,12.875,12.52,12.875,12.52C12.875,12.52,13.272,12.22,13.272,12.22C13.272,12.22,13.647,11.886,13.647,11.886C13.647,11.886,13.999,11.517,13.999,11.517C13.999,11.517,14.328,11.115,14.328,11.115C14.328,11.115,14.632,10.679,14.632,10.679C14.632,10.679,14.911,10.212,14.911,10.212C14.911,10.212,15.164,9.712,15.164,9.712C15.164,9.712,15.39,9.18,15.39,9.18C15.39,9.18,15.588,8.617,15.588,8.617C15.588,8.617,15.759,8.023,15.759,8.023C15.759,8.023,15.9,7.399,15.9,7.399C15.9,7.399,16.011,6.745,16.011,6.745C16.011,6.745,16.091,6.061,16.091,6.061C16.091,6.061,16.14,5.348,16.14,5.348C16.14,5.348,16.156,4.608,16.156,4.608C16.156,4.608,16.14,3.847,16.14,3.847C16.14,3.847,16.091,3.079,16.091,3.079C16.091,3.079,16.011,2.303,16.011,2.303C16.011,2.303,15.9,1.52,15.9,1.52C15.9,1.52,15.759,0.733,15.759,0.733C15.759,0.733,15.588,-0.057,15.588,-0.057C15.588,-0.057,15.39,-0.85,15.39,-0.85C15.39,-0.85,15.164,-1.642,15.164,-1.642C15.164,-1.642,14.911,-2.435,14.911,-2.435C14.911,-2.435,14.632,-3.224,14.632,-3.224C14.632,-3.224,14.328,-4.011,14.328,-4.011C14.328,-4.011,13.999,-4.792,13.999,-4.792C13.999,-4.792,13.647,-5.568,13.647,-5.568C13.647,-5.568,13.272,-6.335,13.272,-6.335C13.272,-6.335,12.875,-7.093,12.875,-7.093C12.875,-7.093,12.457,-7.841,12.457,-7.841C12.457,-7.841,12.018,-8.577,12.018,-8.577C12.018,-8.577,11.56,-9.3,11.56,-9.3C11.56,-9.3,11.083,-10.009,11.083,-10.009C11.083,-10.009,10.588,-10.701,10.588,-10.701C10.588,-10.701,10.075,-11.377,10.075,-11.377C10.075,-11.377,9.546,-12.033,9.546,-12.033C9.546,-12.033,9.001,-12.67,9.001,-12.67C9.001,-12.67,8.442,-13.285,8.442,-13.285C8.442,-13.285,7.868,-13.877,7.868,-13.877C7.868,-13.877,7.282,-14.446,7.282,-14.446C7.282,-14.446,6.682,-14.988,6.682,-14.988C6.682,-14.988,6.071,-15.503,6.071,-15.503C6.071,-15.503,5.449,-15.99,5.449,-15.99C5.449,-15.99,4.817,-16.448,4.817,-16.448C4.817,-16.448,4.175,-16.875,4.175,-16.875C4.175,-16.875,3.525,-17.27,3.525,-17.27C3.525,-17.27,2.876,-17.625,2.876,-17.625C2.876,-17.625,2.234,-17.94,2.234,-17.94C2.234,-17.94,1.602,-18.212,1.602,-18.212C1.602,-18.212,0.98,-18.443,0.98,-18.443C0.98,-18.443,0.369,-18.633,0.369,-18.633C0.369,-18.633,-0.23,-18.782,-0.23,-18.782C-0.23,-18.782,-0.817,-18.892,-0.817,-18.892C-0.817,-18.892,-1.391,-18.962,-1.391,-18.962C-1.391,-18.962,-1.951,-18.992,-1.951,-18.992C-1.951,-18.992,-2.495,-18.986,-2.495,-18.986C-2.495,-18.986,-3.024,-18.94,-3.024,-18.94C-3.024,-18.94,-3.537,-18.856,-3.537,-18.856C-3.537,-18.856,-4.032,-18.736,-4.032,-18.736C-4.032,-18.736,-4.509,-18.577,-4.509,-18.577C-4.509,-18.577,-4.967,-18.384,-4.967,-18.384C-4.967,-18.384,-5.406,-18.154,-5.406,-18.154C-5.406,-18.154,-16.156,-11.947,-16.156,-11.947C-16.156,-11.947,-15.717,-12.178,-15.717,-12.178C-15.717,-12.178,-15.259,-12.371,-15.259,-12.371C-15.259,-12.371,-14.782,-12.529,-14.782,-12.529C-14.782,-12.529,-14.287,-12.65,-14.287,-12.65C-14.287,-12.65,-13.774,-12.733,-13.774,-12.733C-13.774,-12.733,-13.245,-12.779,-13.245,-12.779C-13.245,-12.779,-12.701,-12.786,-12.701,-12.786C-12.701,-12.786,-12.141,-12.755,-12.141,-12.755C-12.141,-12.755,-11.567,-12.686,-11.567,-12.686C-11.567,-12.686,-10.981,-12.575,-10.981,-12.575C-10.981,-12.575,-10.381,-12.426,-10.381,-12.426C-10.381,-12.426,-9.77,-12.237,-9.77,-12.237C-9.77,-12.237,-9.148,-12.005,-9.148,-12.005C-9.148,-12.005,-8.516,-11.734,-8.516,-11.734C-8.516,-11.734,-7.875,-11.419,-7.875,-11.419C-7.875,-11.419,-7.225,-11.063,-7.225,-11.063C-7.225,-11.063,-6.575,-10.668,-6.575,-10.668C-6.575,-10.668,-5.933,-10.242,-5.933,-10.242C-5.933,-10.242,-5.301,-9.784,-5.301,-9.784C-5.301,-9.784,-4.679,-9.297,-4.679,-9.297C-4.679,-9.297,-4.068,-8.781,-4.068,-8.781C-4.068,-8.781,-3.469,-8.238,-3.469,-8.238C-3.469,-8.238,-2.882,-7.671,-2.882,-7.671C-2.882,-7.671,-2.308,-7.078,-2.308,-7.078C-2.308,-7.078,-1.749,-6.463,-1.749,-6.463C-1.749,-6.463,-1.204,-5.826,-1.204,-5.826C-1.204,-5.826,-0.675,-5.17,-0.675,-5.17C-0.675,-5.17,-0.163,-4.494,-0.163,-4.494C-0.163,-4.494,0.332,-3.802,0.332,-3.802C0.332,-3.802,0.81,-3.094,0.81,-3.094C0.81,-3.094,1.268,-2.37,1.268,-2.37C1.268,-2.37,1.707,-1.635,1.707,-1.635C1.707,-1.635,2.125,-0.887,2.125,-0.887C2.125,-0.887,2.522,-0.128,2.522,-0.128C2.522,-0.128,2.896,0.639,2.896,0.639C2.896,0.639,3.249,1.415,3.249,1.415C3.249,1.415,3.578,2.196,3.578,2.196C3.578,2.196,3.882,2.982,3.882,2.982C3.882,2.982,4.161,3.772,4.161,3.772C4.161,3.772,4.414,4.564,4.414,4.564C4.414,4.564,4.64,5.357,4.64,5.357C4.64,5.357,4.838,6.149,4.838,6.149C4.838,6.149,5.008,6.94,5.008,6.94C5.008,6.94,5.15,7.727,5.15,7.727C5.15,7.727,5.26,8.51,5.26,8.51C5.26,8.51,5.341,9.286,5.341,9.286C5.341,9.286,5.39,10.054,5.39,10.054C5.39,10.054,5.406,10.814,5.406,10.814C5.406,10.814,5.39,11.555,5.39,11.555C5.39,11.555,5.341,12.268,5.341,12.268C5.341,12.268,5.26,12.952,5.26,12.952C5.26,12.952,5.15,13.605,5.15,13.605C5.15,13.605,5.008,14.23,5.008,14.23C5.008,14.23,4.838,14.824,4.838,14.824C4.838,14.824,4.64,15.387,4.64,15.387C4.64,15.387,4.414,15.919,4.414,15.919C4.414,15.919,4.161,16.419,4.161,16.419C4.161,16.419,3.882,16.887,3.882,16.887C3.882,16.887,3.578,17.322,3.578,17.322C3.578,17.322,3.249,17.723,3.249,17.723C3.249,17.723,2.896,18.092,2.896,18.092C2.896,18.092,2.522,18.427,2.522,18.427C2.522,18.427,2.125,18.726,2.125,18.726C2.125,18.726,1.707,18.992,1.707,18.992Z" /></g><g id="i41" transform="matrix(1,0,0,1,146.883,221.303)"><path fill="#4d4d4d" d="M12.631,7.292C12.631,-0.763,6.976,-10.558,0,-14.585C-6.975,-18.612,-12.631,-15.348,-12.631,-7.293C-12.631,0.763,-6.975,10.557,0,14.585C6.976,18.612,12.631,15.348,12.631,7.292Z" /></g><g id="i42" transform="matrix(1,0,0,1,154.108,217.781)"><path fill="#333333" d="M1.707,18.992C1.707,18.992,12.457,12.785,12.457,12.785C12.457,12.785,12.875,12.52,12.875,12.52C12.875,12.52,13.272,12.22,13.272,12.22C13.272,12.22,13.647,11.886,13.647,11.886C13.647,11.886,13.999,11.517,13.999,11.517C13.999,11.517,14.328,11.115,14.328,11.115C14.328,11.115,14.632,10.679,14.632,10.679C14.632,10.679,14.911,10.212,14.911,10.212C14.911,10.212,15.164,9.712,15.164,9.712C15.164,9.712,15.39,9.18,15.39,9.18C15.39,9.18,15.588,8.617,15.588,8.617C15.588,8.617,15.759,8.023,15.759,8.023C15.759,8.023,15.9,7.399,15.9,7.399C15.9,7.399,16.011,6.745,16.011,6.745C16.011,6.745,16.091,6.061,16.091,6.061C16.091,6.061,16.14,5.348,16.14,5.348C16.14,5.348,16.156,4.608,16.156,4.608C16.156,4.608,16.14,3.847,16.14,3.847C16.14,3.847,16.091,3.079,16.091,3.079C16.091,3.079,16.011,2.303,16.011,2.303C16.011,2.303,15.9,1.52,15.9,1.52C15.9,1.52,15.759,0.733,15.759,0.733C15.759,0.733,15.588,-0.057,15.588,-0.057C15.588,-0.057,15.39,-0.85,15.39,-0.85C15.39,-0.85,15.164,-1.642,15.164,-1.642C15.164,-1.642,14.911,-2.435,14.911,-2.435C14.911,-2.435,14.632,-3.224,14.632,-3.224C14.632,-3.224,14.328,-4.011,14.328,-4.011C14.328,-4.011,13.999,-4.792,13.999,-4.792C13.999,-4.792,13.647,-5.568,13.647,-5.568C13.647,-5.568,13.272,-6.335,13.272,-6.335C13.272,-6.335,12.875,-7.093,12.875,-7.093C12.875,-7.093,12.457,-7.841,12.457,-7.841C12.457,-7.841,12.018,-8.577,12.018,-8.577C12.018,-8.577,11.56,-9.3,11.56,-9.3C11.56,-9.3,11.083,-10.009,11.083,-10.009C11.083,-10.009,10.588,-10.701,10.588,-10.701C10.588,-10.701,10.075,-11.377,10.075,-11.377C10.075,-11.377,9.546,-12.033,9.546,-12.033C9.546,-12.033,9.001,-12.67,9.001,-12.67C9.001,-12.67,8.442,-13.285,8.442,-13.285C8.442,-13.285,7.868,-13.877,7.868,-13.877C7.868,-13.877,7.282,-14.446,7.282,-14.446C7.282,-14.446,6.682,-14.988,6.682,-14.988C6.682,-14.988,6.071,-15.503,6.071,-15.503C6.071,-15.503,5.449,-15.99,5.449,-15.99C5.449,-15.99,4.817,-16.448,4.817,-16.448C4.817,-16.448,4.175,-16.875,4.175,-16.875C4.175,-16.875,3.525,-17.27,3.525,-17.27C3.525,-17.27,2.876,-17.625,2.876,-17.625C2.876,-17.625,2.234,-17.94,2.234,-17.94C2.234,-17.94,1.602,-18.212,1.602,-18.212C1.602,-18.212,0.98,-18.443,0.98,-18.443C0.98,-18.443,0.369,-18.633,0.369,-18.633C0.369,-18.633,-0.23,-18.782,-0.23,-18.782C-0.23,-18.782,-0.817,-18.892,-0.817,-18.892C-0.817,-18.892,-1.391,-18.962,-1.391,-18.962C-1.391,-18.962,-1.951,-18.992,-1.951,-18.992C-1.951,-18.992,-2.495,-18.986,-2.495,-18.986C-2.495,-18.986,-3.024,-18.94,-3.024,-18.94C-3.024,-18.94,-3.537,-18.856,-3.537,-18.856C-3.537,-18.856,-4.032,-18.736,-4.032,-18.736C-4.032,-18.736,-4.509,-18.577,-4.509,-18.577C-4.509,-18.577,-4.967,-18.384,-4.967,-18.384C-4.967,-18.384,-5.406,-18.154,-5.406,-18.154C-5.406,-18.154,-16.156,-11.947,-16.156,-11.947C-16.156,-11.947,-15.717,-12.178,-15.717,-12.178C-15.717,-12.178,-15.259,-12.371,-15.259,-12.371C-15.259,-12.371,-14.782,-12.529,-14.782,-12.529C-14.782,-12.529,-14.287,-12.65,-14.287,-12.65C-14.287,-12.65,-13.774,-12.733,-13.774,-12.733C-13.774,-12.733,-13.245,-12.779,-13.245,-12.779C-13.245,-12.779,-12.701,-12.786,-12.701,-12.786C-12.701,-12.786,-12.141,-12.755,-12.141,-12.755C-12.141,-12.755,-11.567,-12.686,-11.567,-12.686C-11.567,-12.686,-10.981,-12.575,-10.981,-12.575C-10.981,-12.575,-10.381,-12.426,-10.381,-12.426C-10.381,-12.426,-9.77,-12.237,-9.77,-12.237C-9.77,-12.237,-9.148,-12.005,-9.148,-12.005C-9.148,-12.005,-8.516,-11.734,-8.516,-11.734C-8.516,-11.734,-7.875,-11.419,-7.875,-11.419C-7.875,-11.419,-7.225,-11.063,-7.225,-11.063C-7.225,-11.063,-6.575,-10.668,-6.575,-10.668C-6.575,-10.668,-5.933,-10.242,-5.933,-10.242C-5.933,-10.242,-5.301,-9.784,-5.301,-9.784C-5.301,-9.784,-4.679,-9.297,-4.679,-9.297C-4.679,-9.297,-4.068,-8.781,-4.068,-8.781C-4.068,-8.781,-3.469,-8.238,-3.469,-8.238C-3.469,-8.238,-2.882,-7.671,-2.882,-7.671C-2.882,-7.671,-2.308,-7.078,-2.308,-7.078C-2.308,-7.078,-1.749,-6.463,-1.749,-6.463C-1.749,-6.463,-1.204,-5.826,-1.204,-5.826C-1.204,-5.826,-0.675,-5.17,-0.675,-5.17C-0.675,-5.17,-0.163,-4.494,-0.163,-4.494C-0.163,-4.494,0.332,-3.802,0.332,-3.802C0.332,-3.802,0.81,-3.094,0.81,-3.094C0.81,-3.094,1.268,-2.37,1.268,-2.37C1.268,-2.37,1.707,-1.635,1.707,-1.635C1.707,-1.635,2.125,-0.887,2.125,-0.887C2.125,-0.887,2.522,-0.128,2.522,-0.128C2.522,-0.128,2.896,0.639,2.896,0.639C2.896,0.639,3.249,1.415,3.249,1.415C3.249,1.415,3.578,2.196,3.578,2.196C3.578,2.196,3.882,2.982,3.882,2.982C3.882,2.982,4.161,3.772,4.161,3.772C4.161,3.772,4.414,4.564,4.414,4.564C4.414,4.564,4.64,5.357,4.64,5.357C4.64,5.357,4.838,6.149,4.838,6.149C4.838,6.149,5.008,6.94,5.008,6.94C5.008,6.94,5.15,7.727,5.15,7.727C5.15,7.727,5.26,8.51,5.26,8.51C5.26,8.51,5.341,9.286,5.341,9.286C5.341,9.286,5.39,10.054,5.39,10.054C5.39,10.054,5.406,10.814,5.406,10.814C5.406,10.814,5.39,11.555,5.39,11.555C5.39,11.555,5.341,12.268,5.341,12.268C5.341,12.268,5.26,12.952,5.26,12.952C5.26,12.952,5.15,13.605,5.15,13.605C5.15,13.605,5.008,14.23,5.008,14.23C5.008,14.23,4.838,14.824,4.838,14.824C4.838,14.824,4.64,15.387,4.64,15.387C4.64,15.387,4.414,15.919,4.414,15.919C4.414,15.919,4.161,16.419,4.161,16.419C4.161,16.419,3.882,16.887,3.882,16.887C3.882,16.887,3.578,17.322,3.578,17.322C3.578,17.322,3.249,17.723,3.249,17.723C3.249,17.723,2.896,18.092,2.896,18.092C2.896,18.092,2.522,18.427,2.522,18.427C2.522,18.427,2.125,18.726,2.125,18.726C2.125,18.726,1.707,18.992,1.707,18.992Z" /></g><g id="i43" transform="matrix(1,0,0,1,43.228,161.398)"><path fill="#4d4d4d" d="M12.631,7.292C12.631,-0.763,6.976,-10.557,0,-14.584C-6.975,-18.612,-12.631,-15.347,-12.631,-7.292C-12.631,0.763,-6.975,10.558,0,14.585C6.976,18.613,12.631,15.347,12.631,7.292Z" /></g><g id="i44" transform="matrix(1,0,0,1,43.228,161.398)"><path fill="#e6e6e6" d="M7.92,4.572C7.92,-0.479,4.374,-6.62,0,-9.145C-4.374,-11.67,-7.92,-9.623,-7.92,-4.573C-7.92,0.478,-4.374,6.619,0,9.145C4.374,11.67,7.92,9.622,7.92,4.572Z" /></g><g id="i45" transform="matrix(1,0,0,1,43.228,161.398)"><path fill="#333333" d="M3.228,1.863C3.228,-0.195,1.782,-2.698,-0.001,-3.727C-1.783,-4.756,-3.228,-3.922,-3.228,-1.864C-3.228,0.195,-1.783,2.697,-0.001,3.726C1.782,4.755,3.228,3.921,3.228,1.863Z" /></g><g id="i46" transform="matrix(1,0,0,1,146.883,221.302)"><path fill="#4d4d4d" d="M12.631,7.292C12.631,-0.763,6.976,-10.557,0,-14.585C-6.975,-18.612,-12.631,-15.347,-12.631,-7.292C-12.631,0.763,-6.975,10.558,0,14.586C6.976,18.613,12.631,15.347,12.631,7.292Z" /></g><g id="i47" transform="matrix(1,0,0,1,146.884,221.303)"><path fill="#e6e6e6" d="M7.92,4.572C7.92,-0.479,4.373,-6.62,-0.001,-9.145C-4.374,-11.67,-7.92,-9.623,-7.92,-4.573C-7.92,0.477,-4.374,6.619,-0.001,9.144C4.373,11.67,7.92,9.623,7.92,4.572Z" /></g><g id="i48" transform="matrix(1,0,0,1,146.883,221.303)"><path fill="#333333" d="M3.228,1.863C3.228,-0.195,1.782,-2.699,-0.001,-3.727C-1.783,-4.755,-3.228,-3.921,-3.228,-1.864C-3.228,0.194,-1.783,2.697,-0.001,3.726C1.782,4.755,3.228,3.921,3.228,1.863Z" /></g><g id="i49" transform="matrix(1,0,0,1,180.869,233.127)"><path fill="#333333" d="M1.707,18.992C1.707,18.992,12.457,12.786,12.457,12.786C12.457,12.786,12.875,12.52,12.875,12.52C12.875,12.52,13.271,12.221,13.271,12.221C13.271,12.221,13.646,11.887,13.646,11.887C13.646,11.887,13.999,11.518,13.999,11.518C13.999,11.518,14.327,11.115,14.327,11.115C14.327,11.115,14.632,10.68,14.632,10.68C14.632,10.68,14.91,10.212,14.91,10.212C14.91,10.212,15.163,9.712,15.163,9.712C15.163,9.712,15.389,9.18,15.389,9.18C15.389,9.18,15.589,8.617,15.589,8.617C15.589,8.617,15.758,8.023,15.758,8.023C15.758,8.023,15.9,7.4,15.9,7.4C15.9,7.4,16.01,6.745,16.01,6.745C16.01,6.745,16.09,6.061,16.09,6.061C16.09,6.061,16.139,5.348,16.139,5.348C16.139,5.348,16.156,4.607,16.156,4.607C16.156,4.607,16.139,3.848,16.139,3.848C16.139,3.848,16.09,3.079,16.09,3.079C16.09,3.079,16.01,2.303,16.01,2.303C16.01,2.303,15.9,1.52,15.9,1.52C15.9,1.52,15.758,0.734,15.758,0.734C15.758,0.734,15.589,-0.057,15.589,-0.057C15.589,-0.057,15.389,-0.85,15.389,-0.85C15.389,-0.85,15.163,-1.643,15.163,-1.643C15.163,-1.643,14.91,-2.434,14.91,-2.434C14.91,-2.434,14.632,-3.225,14.632,-3.225C14.632,-3.225,14.327,-4.01,14.327,-4.01C14.327,-4.01,13.999,-4.792,13.999,-4.792C13.999,-4.792,13.646,-5.568,13.646,-5.568C13.646,-5.568,13.271,-6.335,13.271,-6.335C13.271,-6.335,12.875,-7.092,12.875,-7.092C12.875,-7.092,12.457,-7.84,12.457,-7.84C12.457,-7.84,12.018,-8.577,12.018,-8.577C12.018,-8.577,11.56,-9.299,11.56,-9.299C11.56,-9.299,11.082,-10.008,11.082,-10.008C11.082,-10.008,10.587,-10.701,10.587,-10.701C10.587,-10.701,10.074,-11.376,10.074,-11.376C10.074,-11.376,9.546,-12.033,9.546,-12.033C9.546,-12.033,9.001,-12.669,9.001,-12.669C9.001,-12.669,8.441,-13.284,8.441,-13.284C8.441,-13.284,7.868,-13.876,7.868,-13.876C7.868,-13.876,7.281,-14.445,7.281,-14.445C7.281,-14.445,6.681,-14.986,6.681,-14.986C6.681,-14.986,6.07,-15.503,6.07,-15.503C6.07,-15.503,5.449,-15.991,5.449,-15.991C5.449,-15.991,4.816,-16.447,4.816,-16.447C4.816,-16.447,4.176,-16.874,4.176,-16.874C4.176,-16.874,3.525,-17.27,3.525,-17.27C3.525,-17.27,2.875,-17.625,2.875,-17.625C2.875,-17.625,2.233,-17.939,2.233,-17.939C2.233,-17.939,1.602,-18.211,1.602,-18.211C1.602,-18.211,0.979,-18.443,0.979,-18.443C0.979,-18.443,0.368,-18.633,0.368,-18.633C0.368,-18.633,-0.23,-18.781,-0.23,-18.781C-0.23,-18.781,-0.818,-18.891,-0.818,-18.891C-0.818,-18.891,-1.392,-18.961,-1.392,-18.961C-1.392,-18.961,-1.951,-18.992,-1.951,-18.992C-1.951,-18.992,-2.496,-18.986,-2.496,-18.986C-2.496,-18.986,-3.025,-18.939,-3.025,-18.939C-3.025,-18.939,-3.536,-18.855,-3.536,-18.855C-3.536,-18.855,-4.031,-18.736,-4.031,-18.736C-4.031,-18.736,-4.509,-18.577,-4.509,-18.577C-4.509,-18.577,-4.967,-18.383,-4.967,-18.383C-4.967,-18.383,-5.406,-18.154,-5.406,-18.154C-5.406,-18.154,-16.156,-11.947,-16.156,-11.947C-16.156,-11.947,-15.717,-12.176,-15.717,-12.176C-15.717,-12.176,-15.259,-12.37,-15.259,-12.37C-15.259,-12.37,-14.783,-12.529,-14.783,-12.529C-14.783,-12.529,-14.286,-12.65,-14.286,-12.65C-14.286,-12.65,-13.775,-12.732,-13.775,-12.732C-13.775,-12.732,-13.246,-12.779,-13.246,-12.779C-13.246,-12.779,-12.701,-12.785,-12.701,-12.785C-12.701,-12.785,-12.142,-12.755,-12.142,-12.755C-12.142,-12.755,-11.568,-12.685,-11.568,-12.685C-11.568,-12.685,-10.982,-12.576,-10.982,-12.576C-10.982,-12.576,-10.382,-12.426,-10.382,-12.426C-10.382,-12.426,-9.771,-12.236,-9.771,-12.236C-9.771,-12.236,-9.148,-12.005,-9.148,-12.005C-9.148,-12.005,-8.517,-11.733,-8.517,-11.733C-8.517,-11.733,-7.875,-11.418,-7.875,-11.418C-7.875,-11.418,-7.225,-11.063,-7.225,-11.063C-7.225,-11.063,-6.574,-10.668,-6.574,-10.668C-6.574,-10.668,-5.934,-10.241,-5.934,-10.241C-5.934,-10.241,-5.302,-9.783,-5.302,-9.783C-5.302,-9.783,-4.68,-9.296,-4.68,-9.296C-4.68,-9.296,-4.069,-8.78,-4.069,-8.78C-4.069,-8.78,-3.469,-8.237,-3.469,-8.237C-3.469,-8.237,-2.882,-7.669,-2.882,-7.669C-2.882,-7.669,-2.309,-7.077,-2.309,-7.077C-2.309,-7.077,-1.75,-6.462,-1.75,-6.462C-1.75,-6.462,-1.204,-5.827,-1.204,-5.827C-1.204,-5.827,-0.676,-5.169,-0.676,-5.169C-0.676,-5.169,-0.163,-4.495,-0.163,-4.495C-0.163,-4.495,0.332,-3.801,0.332,-3.801C0.332,-3.801,0.81,-3.094,0.81,-3.094C0.81,-3.094,1.268,-2.37,1.268,-2.37C1.268,-2.37,1.707,-1.635,1.707,-1.635C1.707,-1.635,2.125,-0.887,2.125,-0.887C2.125,-0.887,2.521,-0.128,2.521,-0.128C2.521,-0.128,2.896,0.639,2.896,0.639C2.896,0.639,3.249,1.415,3.249,1.415C3.249,1.415,3.577,2.197,3.577,2.197C3.577,2.197,3.882,2.982,3.882,2.982C3.882,2.982,4.16,3.773,4.16,3.773C4.16,3.773,4.413,4.564,4.413,4.564C4.413,4.564,4.639,5.357,4.639,5.357C4.639,5.357,4.839,6.15,4.839,6.15C4.839,6.15,5.008,6.941,5.008,6.941C5.008,6.941,5.15,7.727,5.15,7.727C5.15,7.727,5.26,8.51,5.26,8.51C5.26,8.51,5.34,9.286,5.34,9.286C5.34,9.286,5.389,10.055,5.389,10.055C5.389,10.055,5.405,10.814,5.405,10.814C5.405,10.814,5.389,11.555,5.389,11.555C5.389,11.555,5.34,12.268,5.34,12.268C5.34,12.268,5.26,12.952,5.26,12.952C5.26,12.952,5.15,13.605,5.15,13.605C5.15,13.605,5.008,14.23,5.008,14.23C5.008,14.23,4.839,14.824,4.839,14.824C4.839,14.824,4.639,15.387,4.639,15.387C4.639,15.387,4.413,15.919,4.413,15.919C4.413,15.919,4.16,16.419,4.16,16.419C4.16,16.419,3.882,16.887,3.882,16.887C3.882,16.887,3.577,17.322,3.577,17.322C3.577,17.322,3.249,17.723,3.249,17.723C3.249,17.723,2.896,18.094,2.896,18.094C2.896,18.094,2.521,18.428,2.521,18.428C2.521,18.428,2.125,18.727,2.125,18.727C2.125,18.727,1.707,18.992,1.707,18.992Z" /></g><g id="i50" transform="matrix(1,0,0,1,173.644,236.65)"><path fill="#4d4d4d" d="M12.631,7.292C12.631,-0.763,6.976,-10.558,0,-14.585C-6.976,-18.612,-12.631,-15.348,-12.631,-7.293C-12.631,0.762,-6.976,10.557,0,14.585C6.976,18.612,12.631,15.347,12.631,7.292Z" /></g><g id="i51" transform="matrix(1,0,0,1,173.644,236.65)"><path fill="#e6e6e6" d="M7.92,4.572C7.92,-0.479,4.374,-6.62,-0.001,-9.145C-4.374,-11.67,-7.92,-9.623,-7.92,-4.573C-7.92,0.477,-4.374,6.619,-0.001,9.144C4.374,11.67,7.92,9.623,7.92,4.572Z" /></g><g id="i52" transform="matrix(1,0,0,1,173.644,236.65)"><path fill="#333333" d="M3.228,1.863C3.228,-0.195,1.782,-2.698,0,-3.727C-1.782,-4.755,-3.228,-3.921,-3.228,-1.864C-3.228,0.194,-1.782,2.697,0,3.726C1.782,4.756,3.228,3.921,3.228,1.863Z" /></g><g id="i53" transform="matrix(1,0,0,1,302.504,311.058)"><path fill="#4d4d4d" d="M12.631,7.292C12.631,-0.763,6.976,-10.558,0,-14.585C-6.975,-18.613,-12.631,-15.347,-12.631,-7.292C-12.631,0.763,-6.975,10.558,0,14.586C6.976,18.613,12.631,15.347,12.631,7.292Z" /></g><g id="i54" transform="matrix(1,0,0,1,302.505,311.059)"><path fill="#e6e6e6" d="M7.919,4.572C7.919,-0.479,4.374,-6.62,0,-9.145C-4.373,-11.67,-7.919,-9.623,-7.919,-4.573C-7.919,0.477,-4.373,6.619,0,9.144C4.374,11.67,7.919,9.623,7.919,4.572Z" /></g><g id="i55" transform="matrix(1,0,0,1,302.504,311.06)"><path fill="#333333" d="M3.228,1.863C3.228,-0.195,1.782,-2.698,-0.001,-3.727C-1.783,-4.755,-3.228,-3.921,-3.228,-1.864C-3.228,0.194,-1.783,2.697,-0.001,3.726C1.782,4.756,3.228,3.921,3.228,1.863Z" /></g><g id="i56" transform="matrix(1,0,0,1,329.265,326.405)"><path fill="#4d4d4d" d="M12.631,7.293C12.631,-0.762,6.976,-10.558,0,-14.585C-6.975,-18.612,-12.631,-15.348,-12.631,-7.293C-12.631,0.762,-6.975,10.558,0,14.585C6.976,18.613,12.631,15.348,12.631,7.293Z" /></g><g id="i57" transform="matrix(1,0,0,1,329.265,326.406)"><path fill="#e6e6e6" d="M7.92,4.572C7.92,-0.479,4.374,-6.62,0,-9.145C-4.374,-11.67,-7.92,-9.623,-7.92,-4.573C-7.92,0.477,-4.374,6.619,0,9.144C4.374,11.67,7.92,9.623,7.92,4.572Z" /></g><g id="i58" transform="matrix(1,0,0,1,329.265,326.406)"><path fill="#333333" d="M3.228,1.863C3.228,-0.196,1.782,-2.699,-0.001,-3.727C-1.783,-4.755,-3.228,-3.921,-3.228,-1.864C-3.228,0.194,-1.783,2.697,-0.001,3.725C1.782,4.755,3.228,3.921,3.228,1.863Z" /></g><g id="i59" transform="matrix(1,0,0,1,363.173,338.23)"><path fill="#333333" d="M1.706,18.992C1.706,18.992,12.456,12.786,12.456,12.786C12.456,12.786,12.875,12.52,12.875,12.52C12.875,12.52,13.271,12.221,13.271,12.221C13.271,12.221,13.646,11.887,13.646,11.887C13.646,11.887,13.999,11.517,13.999,11.517C13.999,11.517,14.327,11.115,14.327,11.115C14.327,11.115,14.632,10.68,14.632,10.68C14.632,10.68,14.91,10.213,14.91,10.213C14.91,10.213,15.163,9.712,15.163,9.712C15.163,9.712,15.39,9.18,15.39,9.18C15.39,9.18,15.588,8.617,15.588,8.617C15.588,8.617,15.758,8.023,15.758,8.023C15.758,8.023,15.899,7.399,15.899,7.399C15.899,7.399,16.011,6.746,16.011,6.746C16.011,6.746,16.091,6.061,16.091,6.061C16.091,6.061,16.14,5.349,16.14,5.349C16.14,5.349,16.156,4.608,16.156,4.608C16.156,4.608,16.14,3.848,16.14,3.848C16.14,3.848,16.091,3.08,16.091,3.08C16.091,3.08,16.011,2.303,16.011,2.303C16.011,2.303,15.899,1.52,15.899,1.52C15.899,1.52,15.758,0.734,15.758,0.734C15.758,0.734,15.588,-0.057,15.588,-0.057C15.588,-0.057,15.39,-0.849,15.39,-0.849C15.39,-0.849,15.163,-1.642,15.163,-1.642C15.163,-1.642,14.91,-2.434,14.91,-2.434C14.91,-2.434,14.632,-3.224,14.632,-3.224C14.632,-3.224,14.327,-4.01,14.327,-4.01C14.327,-4.01,13.999,-4.792,13.999,-4.792C13.999,-4.792,13.646,-5.567,13.646,-5.567C13.646,-5.567,13.271,-6.334,13.271,-6.334C13.271,-6.334,12.875,-7.093,12.875,-7.093C12.875,-7.093,12.456,-7.841,12.456,-7.841C12.456,-7.841,12.018,-8.577,12.018,-8.577C12.018,-8.577,11.56,-9.3,11.56,-9.3C11.56,-9.3,11.082,-10.008,11.082,-10.008C11.082,-10.008,10.587,-10.701,10.587,-10.701C10.587,-10.701,10.074,-11.376,10.074,-11.376C10.074,-11.376,9.546,-12.033,9.546,-12.033C9.546,-12.033,9.001,-12.669,9.001,-12.669C9.001,-12.669,8.441,-13.284,8.441,-13.284C8.441,-13.284,7.868,-13.876,7.868,-13.876C7.868,-13.876,7.281,-14.445,7.281,-14.445C7.281,-14.445,6.682,-14.987,6.682,-14.987C6.682,-14.987,6.07,-15.503,6.07,-15.503C6.07,-15.503,5.448,-15.99,5.448,-15.99C5.448,-15.99,4.816,-16.448,4.816,-16.448C4.816,-16.448,4.175,-16.875,4.175,-16.875C4.175,-16.875,3.525,-17.269,3.525,-17.269C3.525,-17.269,2.875,-17.625,2.875,-17.625C2.875,-17.625,2.233,-17.94,2.233,-17.94C2.233,-17.94,1.602,-18.212,1.602,-18.212C1.602,-18.212,0.979,-18.443,0.979,-18.443C0.979,-18.443,0.368,-18.633,0.368,-18.633C0.368,-18.633,-0.231,-18.781,-0.231,-18.781C-0.231,-18.781,-0.818,-18.892,-0.818,-18.892C-0.818,-18.892,-1.392,-18.962,-1.392,-18.962C-1.392,-18.962,-1.951,-18.992,-1.951,-18.992C-1.951,-18.992,-2.495,-18.985,-2.495,-18.985C-2.495,-18.985,-3.024,-18.939,-3.024,-18.939C-3.024,-18.939,-3.537,-18.856,-3.537,-18.856C-3.537,-18.856,-4.032,-18.735,-4.032,-18.735C-4.032,-18.735,-4.51,-18.577,-4.51,-18.577C-4.51,-18.577,-4.968,-18.383,-4.968,-18.383C-4.968,-18.383,-5.406,-18.154,-5.406,-18.154C-5.406,-18.154,-16.156,-11.947,-16.156,-11.947C-16.156,-11.947,-15.718,-12.177,-15.718,-12.177C-15.718,-12.177,-15.26,-12.37,-15.26,-12.37C-15.26,-12.37,-14.782,-12.529,-14.782,-12.529C-14.782,-12.529,-14.287,-12.649,-14.287,-12.649C-14.287,-12.649,-13.774,-12.733,-13.774,-12.733C-13.774,-12.733,-13.246,-12.779,-13.246,-12.779C-13.246,-12.779,-12.701,-12.785,-12.701,-12.785C-12.701,-12.785,-12.142,-12.755,-12.142,-12.755C-12.142,-12.755,-11.568,-12.685,-11.568,-12.685C-11.568,-12.685,-10.982,-12.575,-10.982,-12.575C-10.982,-12.575,-10.382,-12.426,-10.382,-12.426C-10.382,-12.426,-9.771,-12.236,-9.771,-12.236C-9.771,-12.236,-9.148,-12.005,-9.148,-12.005C-9.148,-12.005,-8.517,-11.733,-8.517,-11.733C-8.517,-11.733,-7.875,-11.418,-7.875,-11.418C-7.875,-11.418,-7.225,-11.063,-7.225,-11.063C-7.225,-11.063,-6.575,-10.668,-6.575,-10.668C-6.575,-10.668,-5.934,-10.241,-5.934,-10.241C-5.934,-10.241,-5.302,-9.784,-5.302,-9.784C-5.302,-9.784,-4.68,-9.296,-4.68,-9.296C-4.68,-9.296,-4.068,-8.78,-4.068,-8.78C-4.068,-8.78,-3.469,-8.238,-3.469,-8.238C-3.469,-8.238,-2.882,-7.67,-2.882,-7.67C-2.882,-7.67,-2.309,-7.077,-2.309,-7.077C-2.309,-7.077,-1.749,-6.462,-1.749,-6.462C-1.749,-6.462,-1.204,-5.826,-1.204,-5.826C-1.204,-5.826,-0.676,-5.169,-0.676,-5.169C-0.676,-5.169,-0.163,-4.494,-0.163,-4.494C-0.163,-4.494,0.332,-3.802,0.332,-3.802C0.332,-3.802,0.81,-3.093,0.81,-3.093C0.81,-3.093,1.268,-2.37,1.268,-2.37C1.268,-2.37,1.706,-1.634,1.706,-1.634C1.706,-1.634,2.124,-0.886,2.124,-0.886C2.124,-0.886,2.521,-0.128,2.521,-0.128C2.521,-0.128,2.896,0.64,2.896,0.64C2.896,0.64,3.248,1.415,3.248,1.415C3.248,1.415,3.577,2.196,3.577,2.196C3.577,2.196,3.882,2.983,3.882,2.983C3.882,2.983,4.16,3.773,4.16,3.773C4.16,3.773,4.413,4.565,4.413,4.565C4.413,4.565,4.64,5.357,4.64,5.357C4.64,5.357,4.838,6.15,4.838,6.15C4.838,6.15,5.008,6.94,5.008,6.94C5.008,6.94,5.149,7.727,5.149,7.727C5.149,7.727,5.26,8.51,5.26,8.51C5.26,8.51,5.341,9.286,5.341,9.286C5.341,9.286,5.389,10.054,5.389,10.054C5.389,10.054,5.406,10.815,5.406,10.815C5.406,10.815,5.389,11.556,5.389,11.556C5.389,11.556,5.341,12.268,5.341,12.268C5.341,12.268,5.26,12.952,5.26,12.952C5.26,12.952,5.149,13.606,5.149,13.606C5.149,13.606,5.008,14.23,5.008,14.23C5.008,14.23,4.838,14.824,4.838,14.824C4.838,14.824,4.64,15.388,4.64,15.388C4.64,15.388,4.413,15.919,4.413,15.919C4.413,15.919,4.16,16.419,4.16,16.419C4.16,16.419,3.882,16.887,3.882,16.887C3.882,16.887,3.577,17.322,3.577,17.322C3.577,17.322,3.248,17.724,3.248,17.724C3.248,17.724,2.896,18.093,2.896,18.093C2.896,18.093,2.521,18.428,2.521,18.428C2.521,18.428,2.124,18.727,2.124,18.727C2.124,18.727,1.706,18.992,1.706,18.992Z" /></g><g id="i60" transform="matrix(1,0,0,1,355.948,341.752)"><path fill="#4d4d4d" d="M12.631,7.293C12.631,-0.763,6.976,-10.558,-0.001,-14.585C-6.976,-18.612,-12.631,-15.347,-12.631,-7.293C-12.631,0.763,-6.976,10.558,-0.001,14.585C6.976,18.612,12.631,15.348,12.631,7.293Z" /></g><g id="i61" transform="matrix(1,0,0,1,355.948,341.753)"><path fill="#4d4d4d" d="M12.631,7.293C12.631,-0.762,6.975,-10.557,-0.001,-14.585C-6.976,-18.612,-12.631,-15.347,-12.631,-7.293C-12.631,0.763,-6.976,10.558,-0.001,14.585C6.975,18.613,12.631,15.348,12.631,7.293Z" /></g><g id="i62" transform="matrix(1,0,0,1,355.948,341.753)"><path fill="#e6e6e6" d="M7.919,4.572C7.919,-0.479,4.373,-6.619,-0.001,-9.145C-4.374,-11.669,-7.919,-9.623,-7.919,-4.574C-7.919,0.477,-4.374,6.62,-0.001,9.145C4.373,11.67,7.919,9.623,7.919,4.572Z" /></g><g id="i63" transform="matrix(1,0,0,1,355.948,341.753)"><path fill="#333333" d="M3.227,1.863C3.227,-0.196,1.782,-2.699,0,-3.727C-1.783,-4.755,-3.227,-3.921,-3.227,-1.864C-3.227,0.194,-1.783,2.697,0,3.725C1.782,4.755,3.227,3.921,3.227,1.863Z" /></g><g id="i64" transform="matrix(1,0,0,1,396.496,334.001)"><path fill="#808080" d="M11.286,-12.956C11.286,-12.956,22.441,-6.516,22.441,-6.516C22.441,-6.516,-11.284,12.956,-11.284,12.956C-11.284,12.956,-22.441,6.517,-22.441,6.517C-22.441,6.517,11.286,-12.956,11.286,-12.956Z" /></g><g id="i65" transform="matrix(1,0,0,1,379.633,347.122)"><path fill="#999999" d="M-5.577,-6.605C-5.577,-6.605,5.577,-0.165,5.577,-0.165C5.577,-0.165,5.577,6.605,5.577,6.605C5.577,6.605,-5.577,0.165,-5.577,0.165C-5.577,0.165,-5.577,-6.605,-5.577,-6.605Z" /></g><g id="i66" transform="matrix(1,0,0,1,402.074,340.607)"><path fill="#666666" d="M-16.863,6.35C-16.863,6.35,16.863,-13.122,16.863,-13.122C16.863,-13.122,16.863,-6.351,16.863,-6.351C16.863,-6.351,-16.863,13.121,-16.863,13.121C-16.863,13.121,-16.863,6.35,-16.863,6.35Z" /></g><g id="i67" transform="matrix(1,0,0,1,396.496,334.001)"><path fill="#808080" d="M11.286,-12.956C11.286,-12.956,22.441,-6.516,22.441,-6.516C22.441,-6.516,-11.284,12.956,-11.284,12.956C-11.284,12.956,-22.441,6.517,-22.441,6.517C-22.441,6.517,11.286,-12.956,11.286,-12.956Z" /></g><g id="i68" transform="matrix(1,0,0,1,379.633,347.122)"><path fill="#999999" d="M-5.577,-6.605C-5.577,-6.605,5.577,-0.165,5.577,-0.165C5.577,-0.165,5.577,6.605,5.577,6.605C5.577,6.605,-5.577,0.165,-5.577,0.165C-5.577,0.165,-5.577,-6.605,-5.577,-6.605Z" /></g><g id="i69" transform="matrix(1,0,0,1,402.074,340.607)"><path fill="#666666" d="M-16.863,6.35C-16.863,6.35,16.863,-13.122,16.863,-13.122C16.863,-13.122,16.863,-6.351,16.863,-6.351C16.863,-6.351,-16.863,13.121,-16.863,13.121C-16.863,13.121,-16.863,6.35,-16.863,6.35Z" /></g><g id="i70" transform="matrix(1,0,0,1,164.646,224.416)"><path fill="#26b4a6" d="M27.617,28.672C32.007,7.759,14.3,-13.472,-4.169,-3.918C-8.811,-22.098,-36.249,-33.656,-32.216,-5.873C-32.216,-5.873,-34.514,-7.2,-34.514,-7.2C-36.226,-18.802,-33.957,-26.899,-19.466,-26.942C8.596,-17.682,31.498,-14.143,33.824,5.716C33.824,5.716,36.25,7.116,36.25,7.116C36.25,7.116,36.25,33.656,36.25,33.656C33.372,31.995,30.494,30.333,27.617,28.672Z" /></g><g id="i71" transform="matrix(1,0,0,1,441.882,336.517)"><path fill="#e6e6e6" d="M-40.209,17.464C-40.209,17.464,40.209,-28.965,40.209,-28.965C40.209,-28.965,40.209,-17.464,40.209,-17.464C40.209,-17.464,-40.209,28.965,-40.209,28.965C-40.209,28.965,-40.209,17.464,-40.209,17.464Z" /></g><g id="i72" transform="matrix(1,0,0,1,410.931,351.451)"><path fill="#b3b3b3" d="M3.875,-2.815C3.875,-2.815,4.875,-2.237,4.875,-2.237C4.875,-2.237,-3.875,2.815,-3.875,2.815C-3.875,2.815,-4.875,2.237,-4.875,2.237C-4.875,2.237,3.875,-2.815,3.875,-2.815Z" /></g><g id="i73" transform="matrix(1,0,0,1,406.555,356.548)"><path fill="#cccccc" d="M-0.499,-2.861C-0.499,-2.861,0.499,-2.283,0.499,-2.283C0.499,-2.283,0.499,2.861,0.499,2.861C0.499,2.861,-0.499,2.398,-0.499,2.398C-0.499,2.398,-0.499,-2.861,-0.499,-2.861Z" /></g><g id="i74" transform="matrix(1,0,0,1,411.43,354.311)"><path fill="#e82c8d" d="M-4.375,-0.047C-4.375,-0.047,4.375,-5.098,4.375,-5.098C4.375,-5.098,4.375,0.047,4.375,0.047C4.375,0.047,-4.375,5.098,-4.375,5.098C-4.375,5.098,-4.375,-0.047,-4.375,-0.047Z" /></g><g id="i75" transform="matrix(1,0,0,1,441.881,336.516)"><path fill="#ffffff" d="M-12.092,4.409C-12.092,4.409,12.092,-9.552,12.092,-9.552C12.092,-9.552,12.092,-4.408,12.092,-4.408C12.092,-4.408,-12.092,9.553,-12.092,9.553C-12.092,9.553,-12.092,4.409,-12.092,4.409Z" /></g><g id="i76" transform="matrix(1,0,0,1,473.312,315.435)"><path fill="#b3b3b3" d="M3.875,-2.815C3.875,-2.815,4.875,-2.238,4.875,-2.238C4.875,-2.238,-3.874,2.814,-3.874,2.814C-3.874,2.814,-4.875,2.236,-4.875,2.236C-4.875,2.236,3.875,-2.815,3.875,-2.815Z" /></g><g id="i77" transform="matrix(1,0,0,1,468.937,320.532)"><path fill="#cccccc" d="M-0.5,-2.861C-0.5,-2.861,0.5,-2.283,0.5,-2.283C0.5,-2.283,0.5,2.861,0.5,2.861C0.5,2.861,-0.5,2.398,-0.5,2.398C-0.5,2.398,-0.5,-2.861,-0.5,-2.861Z" /></g><g id="i78" transform="matrix(1,0,0,1,473.812,318.295)"><path fill="#e82c8d" d="M-4.375,-0.046C-4.375,-0.046,4.375,-5.098,4.375,-5.098C4.375,-5.098,4.375,0.047,4.375,0.047C4.375,0.047,-4.375,5.098,-4.375,5.098C-4.375,5.098,-4.375,-0.046,-4.375,-0.046Z" /></g><g id="i79" transform="matrix(1,0,0,1,287.515,122.719)"><path fill="#f5f5f5" d="M-114.158,-114.656C-114.158,-114.656,194.576,63.593,194.576,63.593C194.576,63.593,194.576,66.111,194.576,66.111C194.576,66.111,114.157,114.656,114.157,114.656C114.157,114.656,-194.576,-63.085,-194.576,-63.085C-194.576,-63.085,-194.576,-68.226,-194.576,-68.226C-194.576,-68.226,-114.158,-114.656,-114.158,-114.656Z" /></g><g id="i80" transform="matrix(1,0,0,1,248.552,203.644)"><path fill="#ededed" d="M-155.614,-149.152C-155.614,-149.152,153.12,29.096,153.12,29.096C153.12,29.096,154.543,28.275,154.543,28.275C154.543,28.275,155.614,147.712,155.614,147.712C155.614,147.712,153.12,149.152,153.12,149.152C153.12,149.152,-155.614,-29.096,-155.614,-29.096C-155.614,-29.096,-155.614,-149.152,-155.614,-149.152Z" /></g><g id="i81" transform="matrix(1,0,0,1,441.882,269.553)"><path fill="#dedede" d="M-40.209,-36.813C-40.209,-36.813,40.209,-83.242,40.209,-83.242C40.209,-83.242,40.209,36.812,40.209,36.812C40.209,36.812,-40.209,83.242,-40.209,83.242C-40.209,83.242,-40.209,-36.813,-40.209,-36.813Z" /></g><g id="i1" transform="matrix(1,0,0,1,441.881,269.553)"><path fill="#cccccc" fill-rule="evenodd" d="M-34.329,-34.833C-34.329,-34.833,0.989,-55.224,0.989,-55.224C0.989,-55.224,0.989,-55.223,0.989,-55.223C0.989,-55.223,34.827,-74.759,34.827,-74.759C34.827,-74.759,34.827,34.546,34.827,34.546C23.553,41.065,12.268,47.571,0.989,54.081C0.989,54.081,0.691,54.255,0.691,54.255C0.691,54.255,0.429,54.404,0.429,54.404C0.429,54.404,0.131,54.577,0.131,54.577C-11.516,61.312,-23.176,68.033,-34.827,74.759C-34.827,74.759,-34.827,-34.545,-34.827,-34.545C-34.827,-34.545,-34.329,-34.833,-34.329,-34.833ZM0.989,-52.95C0.989,-52.95,0.989,51.808,0.989,51.808C0.989,51.808,32.848,33.414,32.848,33.414C32.848,33.414,32.848,-71.344,32.848,-71.344C32.848,-71.344,0.989,-52.95,0.989,-52.95ZM-0.989,-51.808C-0.989,-51.808,-32.848,-33.413,-32.848,-33.413C-32.848,-33.413,-32.848,71.344,-32.848,71.344C-32.848,71.344,-0.989,52.95,-0.989,52.95C-0.989,52.95,-0.989,-51.808,-0.989,-51.808Z" /></g></g><g id="i82"><animate repeatCount="indefinite" attributeName="opacity" dur="1.433s" begin="0s" fill="freeze" values="1; 0; 1; 0; 1; 0; 1; 0; 1; 0; 1; 0; 1; 0; 1; 0; 1; 0; 1; 0; 1; 0; 0" keyTimes="0; 0.046512; 0.093023; 0.139535; 0.186046; 0.232558; 0.279069; 0.325581; 0.372093; 0.418604; 0.465116; 0.511628; 0.55814; 0.604652; 0.651163; 0.697675; 0.744186; 0.790698; 0.837209; 0.883721; 0.930233; 0.976744; 1" keySplines="0 0 1 1; 0 0 1 1; 0 0 1 1; 0 0 1 1; 0 0 1 1; 0 0 1 1; 0 0 1 1; 0 0 1 1; 0 0 1 1; 0 0 1 1; 0 0 1 1; 0 0 1 1; 0 0 1 1; 0 0 1 1; 0 0 1 1; 0 0 1 1; 0 0 1 1; 0 0 1 1; 0 0 1 1; 0 0 1 1; 0 0 1 1; 0 0 1 1" calcMode="spline" /><g transform="translate(201.855,278.601) scale(1,1) translate(-7,-8.5)"><g id="i1" transform="matrix(1,0,0,1,6.582,8.368)"><path fill="#333333" fill-rule="evenodd" d="M-4.657,-5.718C-4.409,-5.324,-4.527,-4.803,-4.921,-4.555C-5.315,-4.306,-5.836,-4.424,-6.085,-4.818C-6.333,-5.212,-6.215,-5.733,-5.821,-5.982C-5.427,-6.231,-4.906,-6.112,-4.657,-5.718ZM2.426,7.869C2.032,8.117,1.512,8,1.264,7.606C1.015,7.212,1.133,6.691,1.527,6.442C1.921,6.194,2.441,6.311,2.689,6.705C2.938,7.099,2.82,7.62,2.426,7.869ZM6.085,4.412C6.333,4.806,6.216,5.327,5.822,5.575C5.427,5.824,4.907,5.706,4.658,5.312C4.409,4.917,4.527,4.397,4.921,4.148C5.315,3.899,5.836,4.017,6.085,4.412ZM5.128,0.636C4.734,0.885,4.213,0.767,3.965,0.372C3.716,-0.022,3.834,-0.543,4.228,-0.791C4.622,-1.04,5.143,-0.922,5.392,-0.528C5.641,-0.134,5.522,0.388,5.128,0.636ZM-1.814,5.029C-2.208,5.278,-2.728,5.16,-2.977,4.766C-3.225,4.371,-3.108,3.85,-2.713,3.602C-2.319,3.353,-1.798,3.472,-1.55,3.865C-1.301,4.26,-1.419,4.781,-1.814,5.029ZM-4.406,0.637C-4.8,0.886,-5.321,0.768,-5.569,0.373C-5.818,-0.02,-5.7,-0.541,-5.306,-0.79C-4.912,-1.038,-4.391,-0.92,-4.142,-0.525C-3.894,-0.131,-4.012,0.389,-4.406,0.637ZM2.745,-3.65C2.351,-3.401,1.83,-3.521,1.581,-3.915C1.333,-4.309,1.451,-4.829,1.845,-5.077C2.239,-5.326,2.759,-5.208,3.008,-4.814C3.256,-4.42,3.139,-3.899,2.745,-3.65ZM-1.296,-6.442C-1.69,-6.193,-2.211,-6.31,-2.459,-6.705C-2.708,-7.099,-2.59,-7.619,-2.196,-7.868C-1.801,-8.117,-1.281,-7.999,-1.032,-7.605C-0.784,-7.21,-0.901,-6.691,-1.296,-6.442Z" /></g></g></g><g opacity="0" id="i83"><animate repeatCount="indefinite" attributeName="opacity" dur="1.433s" begin="0s" fill="freeze" values="0; 1; 0; 1; 0; 1; 0; 1; 0; 1; 0; 1; 0; 1; 0; 1; 0; 1; 0; 1; 0; 1; 1" keyTimes="0; 0.046512; 0.093023; 0.139535; 0.186046; 0.232558; 0.279069; 0.325581; 0.372093; 0.418604; 0.465116; 0.511628; 0.55814; 0.604652; 0.651163; 0.697675; 0.744186; 0.790698; 0.837209; 0.883721; 0.930233; 0.976744; 1" keySplines="0 0 1 1; 0 0 1 1; 0 0 1 1; 0 0 1 1; 0 0 1 1; 0 0 1 1; 0 0 1 1; 0 0 1 1; 0 0 1 1; 0 0 1 1; 0 0 1 1; 0 0 1 1; 0 0 1 1; 0 0 1 1; 0 0 1 1; 0 0 1 1; 0 0 1 1; 0 0 1 1; 0 0 1 1; 0 0 1 1; 0 0 1 1; 0 0 1 1" calcMode="spline" /><g transform="translate(201.855,278.601) scale(1,1) translate(-7,-9)"><g id="i1" transform="matrix(1,0,0,1,6.604,8.59)"><path fill="#333333" fill-rule="evenodd" d="M4.036,-1.587C3.642,-1.338,3.121,-1.456,2.872,-1.85C2.624,-2.244,2.743,-2.765,3.137,-3.014C3.531,-3.262,4.052,-3.144,4.301,-2.75C4.549,-2.356,4.43,-1.835,4.036,-1.587ZM0.077,6.698C-0.318,6.947,-0.838,6.829,-1.087,6.435C-1.335,6.041,-1.216,5.52,-0.822,5.272C-0.428,5.023,0.092,5.141,0.34,5.535C0.589,5.929,0.471,6.45,0.077,6.698ZM5.842,3.121C5.448,3.37,4.927,3.252,4.678,2.858C4.429,2.464,4.547,1.943,4.941,1.694C5.336,1.446,5.856,1.563,6.105,1.957C6.353,2.351,6.237,2.873,5.842,3.121ZM0.887,-5.237C0.493,-4.988,-0.026,-5.106,-0.275,-5.5C-0.524,-5.894,-0.406,-6.415,-0.012,-6.664C0.383,-6.912,0.903,-6.795,1.152,-6.401C1.4,-6.007,1.282,-5.486,0.887,-5.237ZM-4.943,-1.97C-5.336,-1.722,-5.856,-1.84,-6.105,-2.234C-6.353,-2.628,-6.236,-3.149,-5.842,-3.397C-5.448,-3.646,-4.926,-3.528,-4.678,-3.134C-4.429,-2.74,-4.548,-2.219,-4.943,-1.97ZM-3.176,3.108C-3.57,3.357,-4.091,3.24,-4.34,2.845C-4.588,2.451,-4.471,1.93,-4.077,1.681C-3.683,1.433,-3.161,1.55,-2.913,1.944C-2.664,2.339,-2.782,2.86,-3.176,3.108ZM5.141,6.927C5.39,7.321,5.272,7.842,4.878,8.091C4.484,8.339,3.963,8.222,3.715,7.828C3.466,7.433,3.585,6.913,3.979,6.664C4.373,6.415,4.893,6.533,5.141,6.927ZM-3.63,-7.828C-3.381,-7.433,-3.499,-6.913,-3.893,-6.664C-4.288,-6.416,-4.808,-6.533,-5.057,-6.927C-5.305,-7.321,-5.188,-7.842,-4.794,-8.09C-4.4,-8.339,-3.879,-8.222,-3.63,-7.828Z" /></g></g></g><g id="i84"><animate repeatCount="indefinite" attributeName="opacity" dur="1.433s" begin="0s" fill="freeze" values="1; 0; 1; 0; 1; 0; 1; 0; 1; 0; 1; 0; 1; 0; 1; 0; 1; 0; 1; 0; 1; 0; 0" keyTimes="0; 0.046512; 0.093023; 0.139535; 0.186046; 0.232558; 0.279069; 0.325581; 0.372093; 0.418604; 0.465116; 0.511628; 0.55814; 0.604652; 0.651163; 0.697675; 0.744186; 0.790698; 0.837209; 0.883721; 0.930233; 0.976744; 1" keySplines="0 0 1 1; 0 0 1 1; 0 0 1 1; 0 0 1 1; 0 0 1 1; 0 0 1 1; 0 0 1 1; 0 0 1 1; 0 0 1 1; 0 0 1 1; 0 0 1 1; 0 0 1 1; 0 0 1 1; 0 0 1 1; 0 0 1 1; 0 0 1 1; 0 0 1 1; 0 0 1 1; 0 0 1 1; 0 0 1 1; 0 0 1 1; 0 0 1 1" calcMode="spline" /><g transform="translate(305.855,338.601) scale(1,1) translate(-7,-8.5)"><g id="i1" transform="matrix(1,0,0,1,6.582,8.368)"><path fill="#333333" fill-rule="evenodd" d="M-4.657,-5.718C-4.409,-5.324,-4.527,-4.803,-4.921,-4.555C-5.315,-4.306,-5.836,-4.424,-6.085,-4.818C-6.333,-5.212,-6.215,-5.733,-5.821,-5.982C-5.427,-6.231,-4.906,-6.112,-4.657,-5.718ZM2.426,7.869C2.032,8.117,1.512,8,1.264,7.606C1.015,7.212,1.133,6.691,1.527,6.442C1.921,6.194,2.441,6.311,2.689,6.705C2.938,7.099,2.82,7.62,2.426,7.869ZM6.085,4.412C6.333,4.806,6.216,5.327,5.822,5.575C5.427,5.824,4.907,5.706,4.658,5.312C4.409,4.917,4.527,4.397,4.921,4.148C5.315,3.899,5.836,4.017,6.085,4.412ZM5.128,0.636C4.734,0.885,4.213,0.767,3.965,0.372C3.716,-0.022,3.834,-0.543,4.228,-0.791C4.622,-1.04,5.143,-0.922,5.392,-0.528C5.641,-0.134,5.522,0.388,5.128,0.636ZM-1.814,5.029C-2.208,5.278,-2.728,5.16,-2.977,4.766C-3.225,4.371,-3.108,3.85,-2.713,3.602C-2.319,3.353,-1.798,3.472,-1.55,3.865C-1.301,4.26,-1.419,4.781,-1.814,5.029ZM-4.406,0.637C-4.8,0.886,-5.321,0.768,-5.569,0.373C-5.818,-0.02,-5.7,-0.541,-5.306,-0.79C-4.912,-1.038,-4.391,-0.92,-4.142,-0.525C-3.894,-0.131,-4.012,0.389,-4.406,0.637ZM2.745,-3.65C2.351,-3.401,1.83,-3.521,1.581,-3.915C1.333,-4.309,1.451,-4.829,1.845,-5.077C2.239,-5.326,2.759,-5.208,3.008,-4.814C3.256,-4.42,3.139,-3.899,2.745,-3.65ZM-1.296,-6.442C-1.69,-6.193,-2.211,-6.31,-2.459,-6.705C-2.708,-7.099,-2.59,-7.619,-2.196,-7.868C-1.801,-8.117,-1.281,-7.999,-1.032,-7.605C-0.784,-7.21,-0.901,-6.691,-1.296,-6.442Z" /></g></g></g><g opacity="0" id="i85"><animate repeatCount="indefinite" attributeName="opacity" dur="1.433s" begin="0s" fill="freeze" values="0; 1; 0; 1; 0; 1; 0; 1; 0; 1; 0; 1; 0; 1; 0; 1; 0; 1; 0; 1; 0; 1; 1" keyTimes="0; 0.046512; 0.093023; 0.139535; 0.186046; 0.232558; 0.279069; 0.325581; 0.372093; 0.418604; 0.465116; 0.511628; 0.55814; 0.604652; 0.651163; 0.697675; 0.744186; 0.790698; 0.837209; 0.883721; 0.930233; 0.976744; 1" keySplines="0 0 1 1; 0 0 1 1; 0 0 1 1; 0 0 1 1; 0 0 1 1; 0 0 1 1; 0 0 1 1; 0 0 1 1; 0 0 1 1; 0 0 1 1; 0 0 1 1; 0 0 1 1; 0 0 1 1; 0 0 1 1; 0 0 1 1; 0 0 1 1; 0 0 1 1; 0 0 1 1; 0 0 1 1; 0 0 1 1; 0 0 1 1; 0 0 1 1" calcMode="spline" /><g transform="translate(305.855,338.601) scale(1,1) translate(-7,-9)"><g id="i1" transform="matrix(1,0,0,1,6.604,8.59)"><path fill="#333333" fill-rule="evenodd" d="M4.036,-1.587C3.642,-1.338,3.121,-1.456,2.872,-1.85C2.624,-2.244,2.743,-2.765,3.137,-3.014C3.531,-3.262,4.052,-3.144,4.301,-2.75C4.549,-2.356,4.43,-1.835,4.036,-1.587ZM0.077,6.698C-0.318,6.947,-0.838,6.829,-1.087,6.435C-1.335,6.041,-1.216,5.52,-0.822,5.272C-0.428,5.023,0.092,5.141,0.34,5.535C0.589,5.929,0.471,6.45,0.077,6.698ZM5.842,3.121C5.448,3.37,4.927,3.252,4.678,2.858C4.429,2.464,4.547,1.943,4.941,1.694C5.336,1.446,5.856,1.563,6.105,1.957C6.353,2.351,6.237,2.873,5.842,3.121ZM0.887,-5.237C0.493,-4.988,-0.026,-5.106,-0.275,-5.5C-0.524,-5.894,-0.406,-6.415,-0.012,-6.664C0.383,-6.912,0.903,-6.795,1.152,-6.401C1.4,-6.007,1.282,-5.486,0.887,-5.237ZM-4.943,-1.97C-5.336,-1.722,-5.856,-1.84,-6.105,-2.234C-6.353,-2.628,-6.236,-3.149,-5.842,-3.397C-5.448,-3.646,-4.926,-3.528,-4.678,-3.134C-4.429,-2.74,-4.548,-2.219,-4.943,-1.97ZM-3.176,3.108C-3.57,3.357,-4.091,3.24,-4.34,2.845C-4.588,2.451,-4.471,1.93,-4.077,1.681C-3.683,1.433,-3.161,1.55,-2.913,1.944C-2.664,2.339,-2.782,2.86,-3.176,3.108ZM5.141,6.927C5.39,7.321,5.272,7.842,4.878,8.091C4.484,8.339,3.963,8.222,3.715,7.828C3.466,7.433,3.585,6.913,3.979,6.664C4.373,6.415,4.893,6.533,5.141,6.927ZM-3.63,-7.828C-3.381,-7.433,-3.499,-6.913,-3.893,-6.664C-4.288,-6.416,-4.808,-6.533,-5.057,-6.927C-5.305,-7.321,-5.188,-7.842,-4.794,-8.09C-4.4,-8.339,-3.879,-8.222,-3.63,-7.828Z" /></g></g></g><g id="i86"><animate repeatCount="indefinite" attributeName="opacity" dur="1.433s" begin="0s" fill="freeze" values="1; 0; 1; 0; 1; 0; 1; 0; 1; 0; 1; 0; 1; 0; 1; 0; 1; 0; 1; 0; 1; 0; 0" keyTimes="0; 0.046512; 0.093023; 0.139535; 0.186046; 0.232558; 0.279069; 0.325581; 0.372093; 0.418604; 0.465116; 0.511628; 0.55814; 0.604652; 0.651163; 0.697675; 0.744186; 0.790698; 0.837209; 0.883721; 0.930233; 0.976744; 1" keySplines="0 0 1 1; 0 0 1 1; 0 0 1 1; 0 0 1 1; 0 0 1 1; 0 0 1 1; 0 0 1 1; 0 0 1 1; 0 0 1 1; 0 0 1 1; 0 0 1 1; 0 0 1 1; 0 0 1 1; 0 0 1 1; 0 0 1 1; 0 0 1 1; 0 0 1 1; 0 0 1 1; 0 0 1 1; 0 0 1 1; 0 0 1 1; 0 0 1 1" calcMode="spline" /><g transform="translate(332.105,353.851) scale(1,1) translate(-7,-8.5)"><g id="i1" transform="matrix(1,0,0,1,6.582,8.368)"><path fill="#333333" fill-rule="evenodd" d="M-4.657,-5.718C-4.409,-5.324,-4.527,-4.803,-4.921,-4.555C-5.315,-4.306,-5.836,-4.424,-6.085,-4.818C-6.333,-5.212,-6.215,-5.733,-5.821,-5.982C-5.427,-6.231,-4.906,-6.112,-4.657,-5.718ZM2.426,7.869C2.032,8.117,1.512,8,1.264,7.606C1.015,7.212,1.133,6.691,1.527,6.442C1.921,6.194,2.441,6.311,2.689,6.705C2.938,7.099,2.82,7.62,2.426,7.869ZM6.085,4.412C6.333,4.806,6.216,5.327,5.822,5.575C5.427,5.824,4.907,5.706,4.658,5.312C4.409,4.917,4.527,4.397,4.921,4.148C5.315,3.899,5.836,4.017,6.085,4.412ZM5.128,0.636C4.734,0.885,4.213,0.767,3.965,0.372C3.716,-0.022,3.834,-0.543,4.228,-0.791C4.622,-1.04,5.143,-0.922,5.392,-0.528C5.641,-0.134,5.522,0.388,5.128,0.636ZM-1.814,5.029C-2.208,5.278,-2.728,5.16,-2.977,4.766C-3.225,4.371,-3.108,3.85,-2.713,3.602C-2.319,3.353,-1.798,3.472,-1.55,3.865C-1.301,4.26,-1.419,4.781,-1.814,5.029ZM-4.406,0.637C-4.8,0.886,-5.321,0.768,-5.569,0.373C-5.818,-0.02,-5.7,-0.541,-5.306,-0.79C-4.912,-1.038,-4.391,-0.92,-4.142,-0.525C-3.894,-0.131,-4.012,0.389,-4.406,0.637ZM2.745,-3.65C2.351,-3.401,1.83,-3.521,1.581,-3.915C1.333,-4.309,1.451,-4.829,1.845,-5.077C2.239,-5.326,2.759,-5.208,3.008,-4.814C3.256,-4.42,3.139,-3.899,2.745,-3.65ZM-1.296,-6.442C-1.69,-6.193,-2.211,-6.31,-2.459,-6.705C-2.708,-7.099,-2.59,-7.619,-2.196,-7.868C-1.801,-8.117,-1.281,-7.999,-1.032,-7.605C-0.784,-7.21,-0.901,-6.691,-1.296,-6.442Z" /></g></g></g><g opacity="0" id="i87"><animate repeatCount="indefinite" attributeName="opacity" dur="1.433s" begin="0s" fill="freeze" values="0; 1; 0; 1; 0; 1; 0; 1; 0; 1; 0; 1; 0; 1; 0; 1; 0; 1; 0; 1; 0; 1; 1" keyTimes="0; 0.046512; 0.093023; 0.139535; 0.186046; 0.232558; 0.279069; 0.325581; 0.372093; 0.418604; 0.465116; 0.511628; 0.55814; 0.604652; 0.651163; 0.697675; 0.744186; 0.790698; 0.837209; 0.883721; 0.930233; 0.976744; 1" keySplines="0 0 1 1; 0 0 1 1; 0 0 1 1; 0 0 1 1; 0 0 1 1; 0 0 1 1; 0 0 1 1; 0 0 1 1; 0 0 1 1; 0 0 1 1; 0 0 1 1; 0 0 1 1; 0 0 1 1; 0 0 1 1; 0 0 1 1; 0 0 1 1; 0 0 1 1; 0 0 1 1; 0 0 1 1; 0 0 1 1; 0 0 1 1; 0 0 1 1" calcMode="spline" /><g transform="translate(332.105,353.851) scale(1,1) translate(-7,-9)"><g id="i1" transform="matrix(1,0,0,1,6.604,8.59)"><path fill="#333333" fill-rule="evenodd" d="M4.036,-1.587C3.642,-1.338,3.121,-1.456,2.872,-1.85C2.624,-2.244,2.743,-2.765,3.137,-3.014C3.531,-3.262,4.052,-3.144,4.301,-2.75C4.549,-2.356,4.43,-1.835,4.036,-1.587ZM0.077,6.698C-0.318,6.947,-0.838,6.829,-1.087,6.435C-1.335,6.041,-1.216,5.52,-0.822,5.272C-0.428,5.023,0.092,5.141,0.34,5.535C0.589,5.929,0.471,6.45,0.077,6.698ZM5.842,3.121C5.448,3.37,4.927,3.252,4.678,2.858C4.429,2.464,4.547,1.943,4.941,1.694C5.336,1.446,5.856,1.563,6.105,1.957C6.353,2.351,6.237,2.873,5.842,3.121ZM0.887,-5.237C0.493,-4.988,-0.026,-5.106,-0.275,-5.5C-0.524,-5.894,-0.406,-6.415,-0.012,-6.664C0.383,-6.912,0.903,-6.795,1.152,-6.401C1.4,-6.007,1.282,-5.486,0.887,-5.237ZM-4.943,-1.97C-5.336,-1.722,-5.856,-1.84,-6.105,-2.234C-6.353,-2.628,-6.236,-3.149,-5.842,-3.397C-5.448,-3.646,-4.926,-3.528,-4.678,-3.134C-4.429,-2.74,-4.548,-2.219,-4.943,-1.97ZM-3.176,3.108C-3.57,3.357,-4.091,3.24,-4.34,2.845C-4.588,2.451,-4.471,1.93,-4.077,1.681C-3.683,1.433,-3.161,1.55,-2.913,1.944C-2.664,2.339,-2.782,2.86,-3.176,3.108ZM5.141,6.927C5.39,7.321,5.272,7.842,4.878,8.091C4.484,8.339,3.963,8.222,3.715,7.828C3.466,7.433,3.585,6.913,3.979,6.664C4.373,6.415,4.893,6.533,5.141,6.927ZM-3.63,-7.828C-3.381,-7.433,-3.499,-6.913,-3.893,-6.664C-4.288,-6.416,-4.808,-6.533,-5.057,-6.927C-5.305,-7.321,-5.188,-7.842,-4.794,-8.09C-4.4,-8.339,-3.879,-8.222,-3.63,-7.828Z" /></g></g></g><g id="i88"><animate repeatCount="indefinite" attributeName="opacity" dur="1.433s" begin="0s" fill="freeze" values="1; 0; 1; 0; 1; 0; 1; 0; 1; 0; 1; 0; 1; 0; 1; 0; 1; 0; 1; 0; 1; 0; 0" keyTimes="0; 0.046512; 0.093023; 0.139535; 0.186046; 0.232558; 0.279069; 0.325581; 0.372093; 0.418604; 0.465116; 0.511628; 0.55814; 0.604652; 0.651163; 0.697675; 0.744186; 0.790698; 0.837209; 0.883721; 0.930233; 0.976744; 1" keySplines="0 0 1 1; 0 0 1 1; 0 0 1 1; 0 0 1 1; 0 0 1 1; 0 0 1 1; 0 0 1 1; 0 0 1 1; 0 0 1 1; 0 0 1 1; 0 0 1 1; 0 0 1 1; 0 0 1 1; 0 0 1 1; 0 0 1 1; 0 0 1 1; 0 0 1 1; 0 0 1 1; 0 0 1 1; 0 0 1 1; 0 0 1 1; 0 0 1 1" calcMode="spline" /><g transform="translate(461.355,428.351) scale(1,1) translate(-7,-8.5)"><g id="i1" transform="matrix(1,0,0,1,6.582,8.368)"><path fill="#333333" fill-rule="evenodd" d="M-4.657,-5.718C-4.409,-5.324,-4.527,-4.803,-4.921,-4.555C-5.315,-4.306,-5.836,-4.424,-6.085,-4.818C-6.333,-5.212,-6.215,-5.733,-5.821,-5.982C-5.427,-6.231,-4.906,-6.112,-4.657,-5.718ZM2.426,7.869C2.032,8.117,1.512,8,1.264,7.606C1.015,7.212,1.133,6.691,1.527,6.442C1.921,6.194,2.441,6.311,2.689,6.705C2.938,7.099,2.82,7.62,2.426,7.869ZM6.085,4.412C6.333,4.806,6.216,5.327,5.822,5.575C5.427,5.824,4.907,5.706,4.658,5.312C4.409,4.917,4.527,4.397,4.921,4.148C5.315,3.899,5.836,4.017,6.085,4.412ZM5.128,0.636C4.734,0.885,4.213,0.767,3.965,0.372C3.716,-0.022,3.834,-0.543,4.228,-0.791C4.622,-1.04,5.143,-0.922,5.392,-0.528C5.641,-0.134,5.522,0.388,5.128,0.636ZM-1.814,5.029C-2.208,5.278,-2.728,5.16,-2.977,4.766C-3.225,4.371,-3.108,3.85,-2.713,3.602C-2.319,3.353,-1.798,3.472,-1.55,3.865C-1.301,4.26,-1.419,4.781,-1.814,5.029ZM-4.406,0.637C-4.8,0.886,-5.321,0.768,-5.569,0.373C-5.818,-0.02,-5.7,-0.541,-5.306,-0.79C-4.912,-1.038,-4.391,-0.92,-4.142,-0.525C-3.894,-0.131,-4.012,0.389,-4.406,0.637ZM2.745,-3.65C2.351,-3.401,1.83,-3.521,1.581,-3.915C1.333,-4.309,1.451,-4.829,1.845,-5.077C2.239,-5.326,2.759,-5.208,3.008,-4.814C3.256,-4.42,3.139,-3.899,2.745,-3.65ZM-1.296,-6.442C-1.69,-6.193,-2.211,-6.31,-2.459,-6.705C-2.708,-7.099,-2.59,-7.619,-2.196,-7.868C-1.801,-8.117,-1.281,-7.999,-1.032,-7.605C-0.784,-7.21,-0.901,-6.691,-1.296,-6.442Z" /></g></g></g><g opacity="0" id="i89"><animate repeatCount="indefinite" attributeName="opacity" dur="1.433s" begin="0s" fill="freeze" values="0; 1; 0; 1; 0; 1; 0; 1; 0; 1; 0; 1; 0; 1; 0; 1; 0; 1; 0; 1; 0; 1; 1" keyTimes="0; 0.046512; 0.093023; 0.139535; 0.186046; 0.232558; 0.279069; 0.325581; 0.372093; 0.418604; 0.465116; 0.511628; 0.55814; 0.604652; 0.651163; 0.697675; 0.744186; 0.790698; 0.837209; 0.883721; 0.930233; 0.976744; 1" keySplines="0 0 1 1; 0 0 1 1; 0 0 1 1; 0 0 1 1; 0 0 1 1; 0 0 1 1; 0 0 1 1; 0 0 1 1; 0 0 1 1; 0 0 1 1; 0 0 1 1; 0 0 1 1; 0 0 1 1; 0 0 1 1; 0 0 1 1; 0 0 1 1; 0 0 1 1; 0 0 1 1; 0 0 1 1; 0 0 1 1; 0 0 1 1; 0 0 1 1" calcMode="spline" /><g transform="translate(461.355,428.351) scale(1,1) translate(-7,-9)"><g id="i1" transform="matrix(1,0,0,1,6.604,8.59)"><path fill="#333333" fill-rule="evenodd" d="M4.036,-1.587C3.642,-1.338,3.121,-1.456,2.872,-1.85C2.624,-2.244,2.743,-2.765,3.137,-3.014C3.531,-3.262,4.052,-3.144,4.301,-2.75C4.549,-2.356,4.43,-1.835,4.036,-1.587ZM0.077,6.698C-0.318,6.947,-0.838,6.829,-1.087,6.435C-1.335,6.041,-1.216,5.52,-0.822,5.272C-0.428,5.023,0.092,5.141,0.34,5.535C0.589,5.929,0.471,6.45,0.077,6.698ZM5.842,3.121C5.448,3.37,4.927,3.252,4.678,2.858C4.429,2.464,4.547,1.943,4.941,1.694C5.336,1.446,5.856,1.563,6.105,1.957C6.353,2.351,6.237,2.873,5.842,3.121ZM0.887,-5.237C0.493,-4.988,-0.026,-5.106,-0.275,-5.5C-0.524,-5.894,-0.406,-6.415,-0.012,-6.664C0.383,-6.912,0.903,-6.795,1.152,-6.401C1.4,-6.007,1.282,-5.486,0.887,-5.237ZM-4.943,-1.97C-5.336,-1.722,-5.856,-1.84,-6.105,-2.234C-6.353,-2.628,-6.236,-3.149,-5.842,-3.397C-5.448,-3.646,-4.926,-3.528,-4.678,-3.134C-4.429,-2.74,-4.548,-2.219,-4.943,-1.97ZM-3.176,3.108C-3.57,3.357,-4.091,3.24,-4.34,2.845C-4.588,2.451,-4.471,1.93,-4.077,1.681C-3.683,1.433,-3.161,1.55,-2.913,1.944C-2.664,2.339,-2.782,2.86,-3.176,3.108ZM5.141,6.927C5.39,7.321,5.272,7.842,4.878,8.091C4.484,8.339,3.963,8.222,3.715,7.828C3.466,7.433,3.585,6.913,3.979,6.664C4.373,6.415,4.893,6.533,5.141,6.927ZM-3.63,-7.828C-3.381,-7.433,-3.499,-6.913,-3.893,-6.664C-4.288,-6.416,-4.808,-6.533,-5.057,-6.927C-5.305,-7.321,-5.188,-7.842,-4.794,-8.09C-4.4,-8.339,-3.879,-8.222,-3.63,-7.828Z" /></g></g></g><g id="i90"><animate repeatCount="indefinite" attributeName="opacity" dur="1.433s" begin="0s" fill="freeze" values="1; 0; 1; 0; 1; 0; 1; 0; 1; 0; 1; 0; 1; 0; 1; 0; 1; 0; 1; 0; 1; 0; 0" keyTimes="0; 0.046512; 0.093023; 0.139535; 0.186046; 0.232558; 0.279069; 0.325581; 0.372093; 0.418604; 0.465116; 0.511628; 0.55814; 0.604652; 0.651163; 0.697675; 0.744186; 0.790698; 0.837209; 0.883721; 0.930233; 0.976744; 1" keySplines="0 0 1 1; 0 0 1 1; 0 0 1 1; 0 0 1 1; 0 0 1 1; 0 0 1 1; 0 0 1 1; 0 0 1 1; 0 0 1 1; 0 0 1 1; 0 0 1 1; 0 0 1 1; 0 0 1 1; 0 0 1 1; 0 0 1 1; 0 0 1 1; 0 0 1 1; 0 0 1 1; 0 0 1 1; 0 0 1 1; 0 0 1 1; 0 0 1 1" calcMode="spline" /><g transform="translate(488.355,443.601) scale(1,1) translate(-7,-8.5)"><g id="i1" transform="matrix(1,0,0,1,6.582,8.368)"><path fill="#333333" fill-rule="evenodd" d="M-4.657,-5.718C-4.409,-5.324,-4.527,-4.803,-4.921,-4.555C-5.315,-4.306,-5.836,-4.424,-6.085,-4.818C-6.333,-5.212,-6.215,-5.733,-5.821,-5.982C-5.427,-6.231,-4.906,-6.112,-4.657,-5.718ZM2.426,7.869C2.032,8.117,1.512,8,1.264,7.606C1.015,7.212,1.133,6.691,1.527,6.442C1.921,6.194,2.441,6.311,2.689,6.705C2.938,7.099,2.82,7.62,2.426,7.869ZM6.085,4.412C6.333,4.806,6.216,5.327,5.822,5.575C5.427,5.824,4.907,5.706,4.658,5.312C4.409,4.917,4.527,4.397,4.921,4.148C5.315,3.899,5.836,4.017,6.085,4.412ZM5.128,0.636C4.734,0.885,4.213,0.767,3.965,0.372C3.716,-0.022,3.834,-0.543,4.228,-0.791C4.622,-1.04,5.143,-0.922,5.392,-0.528C5.641,-0.134,5.522,0.388,5.128,0.636ZM-1.814,5.029C-2.208,5.278,-2.728,5.16,-2.977,4.766C-3.225,4.371,-3.108,3.85,-2.713,3.602C-2.319,3.353,-1.798,3.472,-1.55,3.865C-1.301,4.26,-1.419,4.781,-1.814,5.029ZM-4.406,0.637C-4.8,0.886,-5.321,0.768,-5.569,0.373C-5.818,-0.02,-5.7,-0.541,-5.306,-0.79C-4.912,-1.038,-4.391,-0.92,-4.142,-0.525C-3.894,-0.131,-4.012,0.389,-4.406,0.637ZM2.745,-3.65C2.351,-3.401,1.83,-3.521,1.581,-3.915C1.333,-4.309,1.451,-4.829,1.845,-5.077C2.239,-5.326,2.759,-5.208,3.008,-4.814C3.256,-4.42,3.139,-3.899,2.745,-3.65ZM-1.296,-6.442C-1.69,-6.193,-2.211,-6.31,-2.459,-6.705C-2.708,-7.099,-2.59,-7.619,-2.196,-7.868C-1.801,-8.117,-1.281,-7.999,-1.032,-7.605C-0.784,-7.21,-0.901,-6.691,-1.296,-6.442Z" /></g></g></g><g opacity="0" id="i91"><animate repeatCount="indefinite" attributeName="opacity" dur="1.433s" begin="0s" fill="freeze" values="0; 1; 0; 1; 0; 1; 0; 1; 0; 1; 0; 1; 0; 1; 0; 1; 0; 1; 0; 1; 0; 1; 1" keyTimes="0; 0.046512; 0.093023; 0.139535; 0.186046; 0.232558; 0.279069; 0.325581; 0.372093; 0.418604; 0.465116; 0.511628; 0.55814; 0.604652; 0.651163; 0.697675; 0.744186; 0.790698; 0.837209; 0.883721; 0.930233; 0.976744; 1" keySplines="0 0 1 1; 0 0 1 1; 0 0 1 1; 0 0 1 1; 0 0 1 1; 0 0 1 1; 0 0 1 1; 0 0 1 1; 0 0 1 1; 0 0 1 1; 0 0 1 1; 0 0 1 1; 0 0 1 1; 0 0 1 1; 0 0 1 1; 0 0 1 1; 0 0 1 1; 0 0 1 1; 0 0 1 1; 0 0 1 1; 0 0 1 1; 0 0 1 1" calcMode="spline" /><g transform="translate(488.355,443.601) scale(1,1) translate(-7,-9)"><g id="i1" transform="matrix(1,0,0,1,6.604,8.59)"><path fill="#333333" fill-rule="evenodd" d="M4.036,-1.587C3.642,-1.338,3.121,-1.456,2.872,-1.85C2.624,-2.244,2.743,-2.765,3.137,-3.014C3.531,-3.262,4.052,-3.144,4.301,-2.75C4.549,-2.356,4.43,-1.835,4.036,-1.587ZM0.077,6.698C-0.318,6.947,-0.838,6.829,-1.087,6.435C-1.335,6.041,-1.216,5.52,-0.822,5.272C-0.428,5.023,0.092,5.141,0.34,5.535C0.589,5.929,0.471,6.45,0.077,6.698ZM5.842,3.121C5.448,3.37,4.927,3.252,4.678,2.858C4.429,2.464,4.547,1.943,4.941,1.694C5.336,1.446,5.856,1.563,6.105,1.957C6.353,2.351,6.237,2.873,5.842,3.121ZM0.887,-5.237C0.493,-4.988,-0.026,-5.106,-0.275,-5.5C-0.524,-5.894,-0.406,-6.415,-0.012,-6.664C0.383,-6.912,0.903,-6.795,1.152,-6.401C1.4,-6.007,1.282,-5.486,0.887,-5.237ZM-4.943,-1.97C-5.336,-1.722,-5.856,-1.84,-6.105,-2.234C-6.353,-2.628,-6.236,-3.149,-5.842,-3.397C-5.448,-3.646,-4.926,-3.528,-4.678,-3.134C-4.429,-2.74,-4.548,-2.219,-4.943,-1.97ZM-3.176,3.108C-3.57,3.357,-4.091,3.24,-4.34,2.845C-4.588,2.451,-4.471,1.93,-4.077,1.681C-3.683,1.433,-3.161,1.55,-2.913,1.944C-2.664,2.339,-2.782,2.86,-3.176,3.108ZM5.141,6.927C5.39,7.321,5.272,7.842,4.878,8.091C4.484,8.339,3.963,8.222,3.715,7.828C3.466,7.433,3.585,6.913,3.979,6.664C4.373,6.415,4.893,6.533,5.141,6.927ZM-3.63,-7.828C-3.381,-7.433,-3.499,-6.913,-3.893,-6.664C-4.288,-6.416,-4.808,-6.533,-5.057,-6.927C-5.305,-7.321,-5.188,-7.842,-4.794,-8.09C-4.4,-8.339,-3.879,-8.222,-3.63,-7.828Z" /></g></g></g><g id="i92"><animate repeatCount="indefinite" attributeName="opacity" dur="1.433s" begin="0s" fill="freeze" values="1; 0; 1; 0; 1; 0; 1; 0; 1; 0; 1; 0; 1; 0; 1; 0; 1; 0; 1; 0; 1; 0; 0" keyTimes="0; 0.046512; 0.093023; 0.139535; 0.186046; 0.232558; 0.279069; 0.325581; 0.372093; 0.418604; 0.465116; 0.511628; 0.55814; 0.604652; 0.651163; 0.697675; 0.744186; 0.790698; 0.837209; 0.883721; 0.930233; 0.976744; 1" keySplines="0 0 1 1; 0 0 1 1; 0 0 1 1; 0 0 1 1; 0 0 1 1; 0 0 1 1; 0 0 1 1; 0 0 1 1; 0 0 1 1; 0 0 1 1; 0 0 1 1; 0 0 1 1; 0 0 1 1; 0 0 1 1; 0 0 1 1; 0 0 1 1; 0 0 1 1; 0 0 1 1; 0 0 1 1; 0 0 1 1; 0 0 1 1; 0 0 1 1" calcMode="spline" /><g transform="translate(514.855,458.851) scale(1,1) translate(-7,-8.5)"><g id="i1" transform="matrix(1,0,0,1,6.582,8.368)"><path fill="#333333" fill-rule="evenodd" d="M-4.657,-5.718C-4.409,-5.324,-4.527,-4.803,-4.921,-4.555C-5.315,-4.306,-5.836,-4.424,-6.085,-4.818C-6.333,-5.212,-6.215,-5.733,-5.821,-5.982C-5.427,-6.231,-4.906,-6.112,-4.657,-5.718ZM2.426,7.869C2.032,8.117,1.512,8,1.264,7.606C1.015,7.212,1.133,6.691,1.527,6.442C1.921,6.194,2.441,6.311,2.689,6.705C2.938,7.099,2.82,7.62,2.426,7.869ZM6.085,4.412C6.333,4.806,6.216,5.327,5.822,5.575C5.427,5.824,4.907,5.706,4.658,5.312C4.409,4.917,4.527,4.397,4.921,4.148C5.315,3.899,5.836,4.017,6.085,4.412ZM5.128,0.636C4.734,0.885,4.213,0.767,3.965,0.372C3.716,-0.022,3.834,-0.543,4.228,-0.791C4.622,-1.04,5.143,-0.922,5.392,-0.528C5.641,-0.134,5.522,0.388,5.128,0.636ZM-1.814,5.029C-2.208,5.278,-2.728,5.16,-2.977,4.766C-3.225,4.371,-3.108,3.85,-2.713,3.602C-2.319,3.353,-1.798,3.472,-1.55,3.865C-1.301,4.26,-1.419,4.781,-1.814,5.029ZM-4.406,0.637C-4.8,0.886,-5.321,0.768,-5.569,0.373C-5.818,-0.02,-5.7,-0.541,-5.306,-0.79C-4.912,-1.038,-4.391,-0.92,-4.142,-0.525C-3.894,-0.131,-4.012,0.389,-4.406,0.637ZM2.745,-3.65C2.351,-3.401,1.83,-3.521,1.581,-3.915C1.333,-4.309,1.451,-4.829,1.845,-5.077C2.239,-5.326,2.759,-5.208,3.008,-4.814C3.256,-4.42,3.139,-3.899,2.745,-3.65ZM-1.296,-6.442C-1.69,-6.193,-2.211,-6.31,-2.459,-6.705C-2.708,-7.099,-2.59,-7.619,-2.196,-7.868C-1.801,-8.117,-1.281,-7.999,-1.032,-7.605C-0.784,-7.21,-0.901,-6.691,-1.296,-6.442Z" /></g></g></g><g opacity="0" id="i93"><animate repeatCount="indefinite" attributeName="opacity" dur="1.433s" begin="0s" fill="freeze" values="0; 1; 0; 1; 0; 1; 0; 1; 0; 1; 0; 1; 0; 1; 0; 1; 0; 1; 0; 1; 0; 1; 1" keyTimes="0; 0.046512; 0.093023; 0.139535; 0.186046; 0.232558; 0.279069; 0.325581; 0.372093; 0.418604; 0.465116; 0.511628; 0.55814; 0.604652; 0.651163; 0.697675; 0.744186; 0.790698; 0.837209; 0.883721; 0.930233; 0.976744; 1" keySplines="0 0 1 1; 0 0 1 1; 0 0 1 1; 0 0 1 1; 0 0 1 1; 0 0 1 1; 0 0 1 1; 0 0 1 1; 0 0 1 1; 0 0 1 1; 0 0 1 1; 0 0 1 1; 0 0 1 1; 0 0 1 1; 0 0 1 1; 0 0 1 1; 0 0 1 1; 0 0 1 1; 0 0 1 1; 0 0 1 1; 0 0 1 1; 0 0 1 1" calcMode="spline" /><g transform="translate(514.855,458.851) scale(1,1) translate(-7,-9)"><g id="i1" transform="matrix(1,0,0,1,6.604,8.59)"><path fill="#333333" fill-rule="evenodd" d="M4.036,-1.587C3.642,-1.338,3.121,-1.456,2.872,-1.85C2.624,-2.244,2.743,-2.765,3.137,-3.014C3.531,-3.262,4.052,-3.144,4.301,-2.75C4.549,-2.356,4.43,-1.835,4.036,-1.587ZM0.077,6.698C-0.318,6.947,-0.838,6.829,-1.087,6.435C-1.335,6.041,-1.216,5.52,-0.822,5.272C-0.428,5.023,0.092,5.141,0.34,5.535C0.589,5.929,0.471,6.45,0.077,6.698ZM5.842,3.121C5.448,3.37,4.927,3.252,4.678,2.858C4.429,2.464,4.547,1.943,4.941,1.694C5.336,1.446,5.856,1.563,6.105,1.957C6.353,2.351,6.237,2.873,5.842,3.121ZM0.887,-5.237C0.493,-4.988,-0.026,-5.106,-0.275,-5.5C-0.524,-5.894,-0.406,-6.415,-0.012,-6.664C0.383,-6.912,0.903,-6.795,1.152,-6.401C1.4,-6.007,1.282,-5.486,0.887,-5.237ZM-4.943,-1.97C-5.336,-1.722,-5.856,-1.84,-6.105,-2.234C-6.353,-2.628,-6.236,-3.149,-5.842,-3.397C-5.448,-3.646,-4.926,-3.528,-4.678,-3.134C-4.429,-2.74,-4.548,-2.219,-4.943,-1.97ZM-3.176,3.108C-3.57,3.357,-4.091,3.24,-4.34,2.845C-4.588,2.451,-4.471,1.93,-4.077,1.681C-3.683,1.433,-3.161,1.55,-2.913,1.944C-2.664,2.339,-2.782,2.86,-3.176,3.108ZM5.141,6.927C5.39,7.321,5.272,7.842,4.878,8.091C4.484,8.339,3.963,8.222,3.715,7.828C3.466,7.433,3.585,6.913,3.979,6.664C4.373,6.415,4.893,6.533,5.141,6.927ZM-3.63,-7.828C-3.381,-7.433,-3.499,-6.913,-3.893,-6.664C-4.288,-6.416,-4.808,-6.533,-5.057,-6.927C-5.305,-7.321,-5.188,-7.842,-4.794,-8.09C-4.4,-8.339,-3.879,-8.222,-3.63,-7.828Z" /></g></g></g></svg>